<svg id="Ebene_1" data-name="Ebene 1" xmlns="http://www.w3.org/2000/svg" viewBox="0 0 150 150"><defs><style>.cls-1{fill:#20201f;}.cls-2{fill:#fdfdfd;}.cls-3{fill:#383736;}.cls-4{fill:#fffefe;}.cls-5{fill:#fff;}.cls-6{fill:#21201f;}.cls-7{fill:#242423;}.cls-8{fill:#252524;}.cls-9{fill:#262524;}</style></defs><path class="cls-1" d="M93.83,54,96,51.87a2.93,2.93,0,0,0,.36-.43c1-1,1.82-2.19,2.69-3.31a3,3,0,0,1,.32-.61c2.18-3.05,4.09-6.27,6-9.47a94.47,94.47,0,0,1,6.85-10.19,33.58,33.58,0,0,1,6.93-6.59,24,24,0,0,1,10.06-3.92c2.7-.42,5.43-.63,8.13-1a26.71,26.71,0,0,0,7.19-2c.37-.16.75-.19,1.12-.32h2A2.6,2.6,0,0,1,150,16.57v.23a6.64,6.64,0,0,0,0,2v1.29c-.24,0-.18.22-.2.35a13.27,13.27,0,0,1-3.88,7.63,45.3,45.3,0,0,1-5.34,4.64c-1.24.93-2.43,1.9-3.58,2.93a19,19,0,0,0-6.11,10.9c-.76,4-1.41,8-2.46,11.91-1.63,6.11-3,12.29-4.91,18.34a22.51,22.51,0,0,0-1.37,5.9,21.88,21.88,0,0,0,2.1,10.95,6.59,6.59,0,0,0,3.68,3.5c0,.2-.13.22-.23.29a15.88,15.88,0,0,1-17.1,0,9.33,9.33,0,0,1-2.42-2.35.56.56,0,0,0-.77-.24A9.91,9.91,0,0,0,102.91,98a29.14,29.14,0,0,0-2.11,2.94c-.42.64-.85,1.26-1.23,1.92a15.37,15.37,0,0,1-7.43,6.35,59.44,59.44,0,0,1-13.31,4,9.05,9.05,0,0,1-3,.07c-.82-.13-.92-.36-.45-1,1.82-2.66,3.92-5.11,5.69-7.8a27.76,27.76,0,0,0,2.84-5.56c.09-.25.19-.43-.24-.49-7.24-1-14.46-2.27-21.75-2.88a91.48,91.48,0,0,0-11.59-.19A28.93,28.93,0,0,0,34.4,101,60.94,60.94,0,0,1,27,105.81a34.21,34.21,0,0,1-17.88,4,16.2,16.2,0,0,1-4-.69,8.58,8.58,0,0,1-1-.39c-2-.9-2.19-2.31-.54-3.72a32.64,32.64,0,0,1,2.86-1.94,3.94,3.94,0,0,0,1.38-1.29A24,24,0,0,1,5,102a5.41,5.41,0,0,1-3.69-1.54l-1-.92c-.11-.23.15-.3.22-.45l.57-.58c.14-.11.3-.23.44-.36A12.82,12.82,0,0,1,6.29,95.6L8.45,95c.21-.16.49,0,.71-.12h0c.18-.14.42,0,.6-.11h0c.24-.15.53,0,.77-.12l0,0,0,0c.27-.16.59,0,.86-.12l0,0,0,0c.29-.15.61,0,.89-.11a.33.33,0,0,0,.29,0c.32-.15.67,0,1-.11h.4c.44-.15.9,0,1.34-.11h.19c.52-.16,1.06,0,1.58-.11l0,0h0c.55-.19,1.12,0,1.66-.12h0c.42-.19.88,0,1.3-.12h0c.34-.19.72,0,1.06-.13h0c.24-.15.52,0,.76-.12l0,0,0,0c.19-.15.43,0,.62-.12A8.63,8.63,0,0,0,27.9,91c.19-.23.42-.42.59-.67l.35-.37c.12-.14.24-.3.36-.45a51.67,51.67,0,0,0,4-6,18.65,18.65,0,0,1,2.08-2.84c.16-.19.34-.36.49-.56l.8-.81a5.12,5.12,0,0,0,.43-.36c1.41-1.25,2.9-2.38,4.41-3.5A60.14,60.14,0,0,1,50.26,70a44.86,44.86,0,0,1,7.65-3c2.5-.74,5-1.31,7.58-1.87a.84.84,0,0,0,.37-.14c.18-.15.42,0,.61-.12a.48.48,0,0,0,.44-.11c.19-.16.43,0,.62-.12,2.15-.39,4.28-.9,6.4-1.43,1.43-.37,2.84-.81,4.26-1.21s2.94-.94,4.37-1.48a46.5,46.5,0,0,0,6.2-2.89,24.24,24.24,0,0,0,4.64-3.29A3.73,3.73,0,0,0,93.83,54Z"/><path class="cls-2" d="M150,16.57c-.12,0-.1-.15-.12-.24A3,3,0,0,0,147.65,14c.68,0,1.36,0,2,0,.25,0,.31,0,.3.3C150,15,150,15.8,150,16.57Z"/><path class="cls-3" d="M150,18.79a3.55,3.55,0,0,1,0-2Z"/><path class="cls-4" d="M18.89,93.93a7.07,7.07,0,0,1-1.66.12C17.77,93.77,18.34,94,18.89,93.93Z"/><path class="cls-4" d="M17.18,94a5.59,5.59,0,0,1-1.58.11A4.43,4.43,0,0,1,17.18,94Z"/><path class="cls-4" d="M20.18,93.81a4,4,0,0,1-1.3.12C19.29,93.66,19.75,93.85,20.18,93.81Z"/><path class="cls-4" d="M15.41,94.16a4.65,4.65,0,0,1-1.34.11C14.5,94,15,94.2,15.41,94.16Z"/><path class="cls-4" d="M28.49,90.29a1.38,1.38,0,0,1-.59.67C28,90.63,28.24,90.47,28.49,90.29Z"/><path class="cls-4" d="M21.23,93.69a2.92,2.92,0,0,1-1.06.13C20.5,93.55,20.88,93.73,21.23,93.69Z"/><path class="cls-4" d="M35.77,80.11a1,1,0,0,1-.49.56A.83.83,0,0,1,35.77,80.11Z"/><path class="cls-4" d="M13.67,94.28a2.61,2.61,0,0,1-1,.11C13,94.15,13.33,94.31,13.67,94.28Z"/><path class="cls-4" d="M12.38,94.4a2.06,2.06,0,0,1-.89.11C11.77,94.27,12.09,94.43,12.38,94.4Z"/><path class="cls-4" d="M11.42,94.51a2.11,2.11,0,0,1-.86.12C10.82,94.39,11.13,94.54,11.42,94.51Z"/><path class="cls-4" d="M96.33,51.44a.58.58,0,0,1-.36.43A.57.57,0,0,1,96.33,51.44Z"/><path class="cls-4" d="M93.83,54a.55.55,0,0,1-.43.36A.57.57,0,0,1,93.83,54Z"/><path class="cls-4" d="M37,78.94a.6.6,0,0,1-.43.36A.57.57,0,0,1,37,78.94Z"/><path class="cls-4" d="M29.2,89.47a.6.6,0,0,1-.36.45A.54.54,0,0,1,29.2,89.47Z"/><path class="cls-4" d="M22,93.58a1.52,1.52,0,0,1-.76.12C21.45,93.46,21.73,93.61,22,93.58Z"/><path class="cls-4" d="M10.51,94.63a1.56,1.56,0,0,1-.77.12C10,94.5,10.25,94.67,10.51,94.63Z"/><path class="cls-4" d="M9.16,94.86a1.26,1.26,0,0,1-.71.12C8.65,94.75,8.92,94.89,9.16,94.86Z"/><path class="cls-4" d="M1.51,98.13a.61.61,0,0,1-.44.36A.56.56,0,0,1,1.51,98.13Z"/><path class="cls-4" d="M.5,99.07l-.22.45C0,99.22.36,99.19.5,99.07Z"/><path class="cls-4" d="M67.53,64.67a1,1,0,0,1-.62.12C67.09,64.57,67.32,64.69,67.53,64.67Z"/><path class="cls-4" d="M66.47,64.9a.87.87,0,0,1-.61.12C66,64.81,66.26,64.92,66.47,64.9Z"/><path class="cls-4" d="M22.66,93.46a1.1,1.1,0,0,1-.62.12C22.22,93.36,22.45,93.48,22.66,93.46Z"/><path class="cls-4" d="M9.75,94.75a1,1,0,0,1-.6.11C9.32,94.65,9.55,94.76,9.75,94.75Z"/><path class="cls-5" d="M79.94,110.29c.83-1.17,1.63-2.27,2.41-3.38a45.13,45.13,0,0,0,7.12-14.45,41.3,41.3,0,0,0,1.31-9.64c0-.44-.09-.52-.48-.33a4.48,4.48,0,0,0-2,2.09,46.8,46.8,0,0,0-2.09,5.26,13.37,13.37,0,0,1-2.14,4,2.82,2.82,0,0,1-2.11,1,74.67,74.67,0,0,1-14.64-.79,108.41,108.41,0,0,0-14.73-1.24,29.75,29.75,0,0,0-15.36,4.29c-2.94,1.77-5.8,3.67-8.79,5.36a37,37,0,0,1-14.25,4.82,34.67,34.67,0,0,1-8.81-.26c-.51-.07-.61-.33-.3-.75a5.31,5.31,0,0,1,1.46-1.16,23.63,23.63,0,0,0,3-2.07,3.34,3.34,0,0,0,1.26-2c0-.34-.06-.47-.42-.5-1.43-.12-2.85,0-4.27-.06a8.86,8.86,0,0,1-3-.58c-.37-.13-.45-.26-.19-.6a5.9,5.9,0,0,1,2.65-1.85A23.31,23.31,0,0,1,12,96.25c3.38-.29,6.78-.3,10.16-.69a25.59,25.59,0,0,0,3.67-.72A8.56,8.56,0,0,0,30,91.68a58.69,58.69,0,0,0,4.32-6A30.21,30.21,0,0,1,43,77a65.05,65.05,0,0,1,17.74-8.41c3.56-1,7.23-1.63,10.85-2.39a63.85,63.85,0,0,0,22-9,33.78,33.78,0,0,0,9.12-9.45c2.7-3.9,4.93-8.09,7.38-12.14a49.19,49.19,0,0,1,7-9.47,22.47,22.47,0,0,1,16.1-6.69,37.37,37.37,0,0,0,6.07-.32,9.78,9.78,0,0,0,2.59-.88c.25-.13.39-.21.49.15a3.5,3.5,0,0,0,2.94,2.44,9,9,0,0,0,1.56.24c.54,0,.56.26.48.7a11.08,11.08,0,0,1-3.07,5.87A37.21,37.21,0,0,1,138.62,32a39.12,39.12,0,0,0-5.31,4.21,13.36,13.36,0,0,0-3.5,6.11c-1.14,4.13-2,8.34-2.9,12.52a122.15,122.15,0,0,1-5.74,19.65,42,42,0,0,1-6.73,11.58,22.56,22.56,0,0,1-5.52,4.74l-.48.26a5.73,5.73,0,0,1-.38-2c-.09-1.12-.07-2.26-.25-3.37a3.36,3.36,0,0,0-.54-1.47c-.09-.14-.17-.36-.37-.33s-.16.25-.21.39a65.77,65.77,0,0,1-2.52,6.16,39.71,39.71,0,0,1-7.91,11.58,29.88,29.88,0,0,1-15.68,8.06Z"/><path class="cls-5" d="M119.13,84.54c.68,4.38,1.63,8.6,4.08,12.39a11.21,11.21,0,0,1-3.61.17,14,14,0,0,1-6.19-1.91c-1.58-1-1.71-1.44-.88-3.09a16.88,16.88,0,0,1,2.76-3.75C116.5,87,117.84,85.85,119.13,84.54Z"/><path class="cls-6" d="M130.37,23.22h.32c1.18,0,1.23.06,1.17,1.26a4.23,4.23,0,0,1-4.26,3.92,4.75,4.75,0,0,1-2.68-.65.61.61,0,0,1-.32-.85,5,5,0,0,1,4.17-3.54A8,8,0,0,1,130.37,23.22Z"/><path class="cls-7" d="M134.7,29.21c-.25-.13-.17-.33-.12-.5a13.93,13.93,0,0,1,1.16-2.62,31.84,31.84,0,0,1,4.84-6.35c.19-.2.46-.58.69-.38s-.12.51-.31.71a34.23,34.23,0,0,0-4.78,6.26,14,14,0,0,0-1.06,2.33A.92.92,0,0,1,134.7,29.21Z"/><path class="cls-8" d="M136.47,29a11,11,0,0,1,1.26-3.54,36.45,36.45,0,0,1,3.53-5,1.14,1.14,0,0,1,.25-.24c.08-.07.18-.18.3-.08s.05.21,0,.32a2.24,2.24,0,0,1-.45.68,31.21,31.21,0,0,0-3.07,4.25,11.1,11.1,0,0,0-1.26,3.31,2.62,2.62,0,0,1-.11.4c-.06.16-.13.39-.32.36S136.5,29.2,136.47,29Z"/><path class="cls-8" d="M138.8,29.89c-.25-.25-.15-.55-.12-.82A17.49,17.49,0,0,1,142,21.18c.1-.15.25-.4.45-.28s0,.41-.05.57a35.38,35.38,0,0,0-2,3.49,13,13,0,0,0-1.16,4.13A.89.89,0,0,1,138.8,29.89Z"/><path class="cls-9" d="M140.67,29.88c-.19-.15-.17-.37-.18-.58a14.34,14.34,0,0,1,2.13-7.49c.1-.17.21-.47.45-.34s.07.4,0,.57c-.32.69-.69,1.35-1,2A12.55,12.55,0,0,0,141,29C141,29.57,141,29.57,140.67,29.88Z"/></svg>