<svg id="Ebene_1" data-name="Ebene 1" xmlns="http://www.w3.org/2000/svg" viewBox="0 0 75 75"><defs><style>.cls-1{fill:#fbfdfb;}.cls-2{fill:#fefefe;}.cls-3{fill:#db0a34;}.cls-4{fill:#db0b35;}</style></defs><path class="cls-1" d="M74.48.73q0,36.46,0,72.92c0,.69-.16.85-.85.85q-36.47,0-72.92,0a2,2,0,0,1-.09-1V1.77C.64.5.5.64,1.78.64H73.49A2,2,0,0,1,74.48.73Z"/><path class="cls-2" d="M74.48.73H2C.73.73.73.73.73,2v72.5c-.38-.16-.17-.5-.17-.74q0-16,0-31.95,0-20.23,0-40.46c0-.67.13-.8.8-.8q36.21,0,72.41,0C74,.56,74.32.35,74.48.73Z"/><path class="cls-3" d="M51.64,26.82a4,4,0,0,1-4.11-4,4.13,4.13,0,0,1,8.25.05A4,4,0,0,1,51.64,26.82Z"/><path class="cls-3" d="M36.32,12a4.06,4.06,0,0,1-4.14-4A4.12,4.12,0,0,1,40.41,8,4.07,4.07,0,0,1,36.32,12Z"/><path class="cls-3" d="M36.32,63.2a4,4,0,1,1-4.12,4A4.08,4.08,0,0,1,36.32,63.2Z"/><path class="cls-3" d="M59.27,48.85A4,4,0,1,1,63.5,45,4,4,0,0,1,59.27,48.85Z"/><path class="cls-3" d="M44,19.43a4,4,0,0,1-4.07-4,4.1,4.1,0,0,1,8.19.15A4,4,0,0,1,44,19.43Z"/><path class="cls-3" d="M67,41.58a4,4,0,1,1,4.13-4A4.07,4.07,0,0,1,67,41.58Z"/><path class="cls-3" d="M44,55.78a4,4,0,0,1,4.12,3.95A4.1,4.1,0,1,1,44,55.78Z"/><path class="cls-3" d="M59.48,26.37a3.95,3.95,0,1,1-.19,7.89,4,4,0,1,1,.19-7.89Z"/><path class="cls-3" d="M51.73,48.39a4,4,0,0,1,4.07,4,4.12,4.12,0,1,1-4.07-4Z"/><path class="cls-3" d="M47.51,30.06A3.45,3.45,0,0,1,44,33.44a3.5,3.5,0,0,1-3.47-3.37,3.5,3.5,0,0,1,7,0Z"/><path class="cls-3" d="M28.6,11.91a3.46,3.46,0,0,1,3.52,3.4,3.48,3.48,0,0,1-3.5,3.34,3.37,3.37,0,1,1,0-6.74Z"/><path class="cls-3" d="M36.38,26.05a3.38,3.38,0,1,1,3.49-3.35A3.48,3.48,0,0,1,36.38,26.05Z"/><path class="cls-3" d="M25.13,59.82a3.44,3.44,0,0,1,3.51-3.39,3.38,3.38,0,1,1-.06,6.76A3.44,3.44,0,0,1,25.13,59.82Z"/><path class="cls-3" d="M43.83,48.28a3.35,3.35,0,1,1,.2-6.7,3.35,3.35,0,1,1-.2,6.7Z"/><path class="cls-3" d="M36.35,49a3.36,3.36,0,1,1-.15,6.71A3.36,3.36,0,1,1,36.35,49Z"/><path class="cls-3" d="M51.71,40.9a3.36,3.36,0,1,1-.05-6.72,3.36,3.36,0,1,1,.05,6.72Z"/><path class="cls-3" d="M36.29,34.74a2.77,2.77,0,1,1-2.84,2.78A2.81,2.81,0,0,1,36.29,34.74Z"/><path class="cls-3" d="M25.85,30.14a2.77,2.77,0,0,1,2.79-2.81,2.81,2.81,0,0,1,2.95,2.76,2.88,2.88,0,0,1-2.86,2.79A2.83,2.83,0,0,1,25.85,30.14Z"/><path class="cls-3" d="M21,25.55a2.78,2.78,0,0,1-2.91-2.69A2.83,2.83,0,0,1,21,20a2.86,2.86,0,0,1,2.87,2.77A2.79,2.79,0,0,1,21,25.55Z"/><path class="cls-3" d="M28.61,42.1a2.77,2.77,0,0,1,2.86,2.74,2.82,2.82,0,0,1-2.82,2.81,2.91,2.91,0,0,1-2.93-2.82A2.84,2.84,0,0,1,28.61,42.1Z"/><path class="cls-3" d="M21,55.1a2.84,2.84,0,0,1-2.88-2.75,2.89,2.89,0,0,1,2.95-2.8,2.86,2.86,0,0,1,2.82,2.82A2.8,2.8,0,0,1,21,55.1Z"/><path class="cls-3" d="M11,44.72a2.26,2.26,0,1,1,2.27,2.18A2.23,2.23,0,0,1,11,44.72Z"/><path class="cls-3" d="M21.05,39.55a2.19,2.19,0,0,1-2.24-2.19,2.24,2.24,0,1,1,2.24,2.19Z"/><path class="cls-3" d="M13.92,32.55a2.17,2.17,0,1,1,0-4.33,2.17,2.17,0,1,1,0,4.33Z"/><path class="cls-4" d="M6.08,39.4a1.94,1.94,0,0,1-2-1.88,2,2,0,0,1,2-2,2,2,0,0,1,2,2A2,2,0,0,1,6.08,39.4Z"/></svg>