<svg id="Ebene_1" data-name="Ebene 1" xmlns="http://www.w3.org/2000/svg" viewBox="0 0 410 410"><defs><style>.cls-1{fill:#fff;}.cls-2{fill:#edeced;}.cls-3{fill:#231f20;}.cls-4{fill:#231e20;}.cls-5{fill:#e52629;}.cls-6{fill:#e5262b;}.cls-7{fill:#e52529;}.cls-8{fill:#e5252a;}.cls-9{fill:#e5262a;}.cls-10{fill:#fcfbfb;}.cls-11{fill:#fdfaf7;}.cls-12{fill:#fcfaf9;}.cls-13{fill:#fcf8f6;}.cls-14{fill:#faf5f3;}.cls-15{fill:#f5efed;}.cls-16{fill:#faf2f1;}.cls-17{fill:#e5252d;}.cls-18{fill:#faf4f2;}.cls-19{fill:#f9f3f2;}.cls-20{fill:#fbf6f5;}.cls-21{fill:#faf5f5;}.cls-22{fill:#e42728;}.cls-23{fill:#fcfbf9;}.cls-24{fill:#e12427;}.cls-25{fill:#fbf7f6;}.cls-26{fill:#f9f8f8;}.cls-27{fill:#f9f8f6;}.cls-28{fill:#e4262e;}.cls-29{fill:#fbf3f0;}.cls-30{fill:#faf2f2;}.cls-31{fill:#f8f4f1;}.cls-32{fill:#fbf2f1;}.cls-33{fill:#f6f1ec;}.cls-34{fill:#faf5f4;}.cls-35{fill:#f9f2ef;}.cls-36{fill:#f9f0ec;}.cls-37{fill:#f8f2ef;}.cls-38{fill:#af373b;}.cls-39{fill:#faf0ee;}.cls-40{fill:#d93e4e;}.cls-41{fill:#b0373a;}.cls-42{fill:#f6e9e4;}.cls-43{fill:#f7e7e5;}.cls-44{fill:#faeae0;}.cls-45{fill:#b9373d;}.cls-46{fill:#c24a49;}.cls-47{fill:#efd0cd;}.cls-48{fill:#f3e6df;}.cls-49{fill:#f9eaea;}.cls-50{fill:#b22924;}.cls-51{fill:#c8484d;}.cls-52{fill:#b4393f;}.cls-53{fill:#a73b3e;}.cls-54{fill:#922a29;}.cls-55{fill:#bd3437;}.cls-56{fill:#f8dadc;}.cls-57{fill:#eb99a1;}.cls-58{fill:#a43a3d;}.cls-59{fill:#eaacad;}.cls-60{fill:#b73e3a;}.cls-61{fill:#d06563;}.cls-62{fill:#f5d3cd;}.cls-63{fill:#af3c3c;}.cls-64{fill:#f0aaae;}.cls-65{fill:#f7d5d2;}.cls-66{fill:#f0bfbf;}.cls-67{fill:#fffeff;}.cls-68{fill:#4d1a22;}.cls-69{fill:#882427;}.cls-70{fill:#c92736;}.cls-71{fill:#541e1f;}.cls-72{fill:#ca2728;}.cls-73{fill:#c9232e;}.cls-74{fill:#9e292b;}.cls-75{fill:#6c1f22;}.cls-76{fill:#a82932;}.cls-77{fill:#ce2835;}.cls-78{fill:#d2292f;}.cls-79{fill:#8c2826;}.cls-80{fill:#b82b28;}.cls-81{fill:#80271f;}.cls-82{fill:#892529;}.cls-83{fill:#c72d32;}.cls-84{fill:#d02733;}.cls-85{fill:#ae2932;}.cls-86{fill:#c62a30;}.cls-87{fill:#c72737;}.cls-88{fill:#be2832;}.cls-89{fill:#632221;}.cls-90{fill:#7d232f;}.cls-91{fill:#68211d;}.cls-92{fill:#e12325;}.cls-93{fill:#fdfdfc;}.cls-94{fill:#faf4f3;}.cls-95{fill:#da2728;}.cls-96{fill:#c23033;}.cls-97{fill:#d36267;}.cls-98{fill:#dc233a;}.cls-99{fill:#e12324;}.cls-100{fill:#b53539;}.cls-101{fill:#b24c4f;}.cls-102{fill:#fdfaf9;}.cls-103{fill:#d5282e;}.cls-104{fill:#ce464a;}.cls-105{fill:#d6525f;}.cls-106{fill:#cf585c;}.cls-107{fill:#e42726;}.cls-108{fill:#f0c6c4;}.cls-109{fill:#ad3740;}.cls-110{fill:#e02326;}.cls-111{fill:#9c4247;}.cls-112{fill:#d2292d;}.cls-113{fill:#af4742;}.cls-114{fill:#e1253d;}.cls-115{fill:#e12837;}.cls-116{fill:#fad5d6;}.cls-117{fill:#c62e31;}.cls-118{fill:#b83536;}.cls-119{fill:#cc5154;}.cls-120{fill:#ba3b40;}.cls-121{fill:#c23134;}.cls-122{fill:#c7444c;}.cls-123{fill:#faddd9;}.cls-124{fill:#ca6364;}.cls-125{fill:#f6c6cc;}.cls-126{fill:#a1535f;}.cls-127{fill:#b93039;}.cls-128{fill:#cf4e54;}.cls-129{fill:#d25857;}.cls-130{fill:#f9e8dd;}.cls-131{fill:#c34b4c;}.cls-132{fill:#bb3238;}.cls-133{fill:#c32f34;}.cls-134{fill:#c03036;}.cls-135{fill:#be3133;}.cls-136{fill:#e42426;}.cls-137{fill:#b8363c;}.cls-138{fill:#a3565e;}.cls-139{fill:#c13734;}.cls-140{fill:#b43840;}.cls-141{fill:#e5252b;}.cls-142{fill:#b43b3f;}.cls-143{fill:#d2282d;}.cls-144{fill:#f19097;}.cls-145{fill:#aa383e;}.cls-146{fill:#fdf9f9;}.cls-147{fill:#d32930;}.cls-148{fill:#f1b8bf;}.cls-149{fill:#c03430;}.cls-150{fill:#fffefe;}.cls-151{fill:#fdfafa;}.cls-152{fill:#f8dedf;}.cls-153{fill:#d12a2d;}.cls-154{fill:#e52424;}.cls-155{fill:#cc2b2e;}</style></defs><path class="cls-1" d="M170.75,77.76q119,0,237.9,0c.77,0,.94.17.94.93q0,126.31,0,252.64c0,.76-.17.94-.94.93H1.35c-.77,0-.94-.17-.94-.93q0-126.78,0-253.56H120.66a1.18,1.18,0,0,1,.25.5,13.83,13.83,0,0,1,0,1.93V207.72c0,2.19,0,2.19,2.16,2.19,14.58,0,29.17.06,43.75,0a73.67,73.67,0,0,0,22-3.15c6.83-2.16,13-5.48,17.84-10.9a31.41,31.41,0,0,0,5.07-7.75c.24-.52.33-1.45,1.06-1.27.57.13.36,1,.36,1.56q0,34.44,0,68.87c0,2.54-.26,2.33,2.28,2.33,15.54,0,31.08.16,46.61-.05,9.27-.13,18.3-1.86,26.65-6.21C299,248,305,239.62,306.58,228.15a33.2,33.2,0,0,0-.21-12.49c-1.85-7.76-6.45-13.56-13.08-17.82a39.11,39.11,0,0,0-16-5.73,6.34,6.34,0,0,1-1.5-.3c-.49-.2-.51-.52-.07-.82a3.41,3.41,0,0,1,1.16-.36A33.75,33.75,0,0,0,292,183.21a29.39,29.39,0,0,0,5.39-6.38c.52-.71.82-1.56,1.32-2.28a1.6,1.6,0,0,0,.42-.92,35.63,35.63,0,0,0,1.68-5.74,8.36,8.36,0,0,0,.27-1.65,52.17,52.17,0,0,0,0-9.76,12.35,12.35,0,0,0-.27-1.81,7.47,7.47,0,0,1-.12-.95c-.09-.4-.18-.8-.29-1.19a26.9,26.9,0,0,0-3.14-8.11c-3.78-6.35-9.41-10.36-16.24-12.88A59.54,59.54,0,0,0,265,128.29c-2.45-.19-4.9-.15-7.35-.16H214.88c-.34,0-.68,0-1,0a.65.65,0,0,0-.69.71c0,.34,0,.68,0,1q0,14.35,0,28.72c0,.58.26,1.48-.35,1.66s-.83-.73-1.11-1.23a31.35,31.35,0,0,0-12.86-12.35,39.85,39.85,0,0,0-14.46-4.46,2.68,2.68,0,0,1-.3-.05c-.33-.09-.77-.12-.82-.5s.42-.58.77-.65a42.7,42.7,0,0,0,6.08-1.76c6.65-2.54,12-6.62,15.57-12.89A28.27,28.27,0,0,0,209.13,115a37.23,37.23,0,0,0-1.1-13.26,27.49,27.49,0,0,0-13.34-17.33c-5.05-3-10.6-4.4-16.32-5.34a4,4,0,0,1-1.08-.26,30.56,30.56,0,0,0-5.39-.59C171.49,78.22,170.92,78.44,170.75,77.76Z"/><path class="cls-2" d="M170.75,77.76c1.34.4,2.74.11,4.1.39a10.83,10.83,0,0,1,2.64.46,2,2,0,0,1-1.57.24,96.17,96.17,0,0,0-10.18-.56c-14.78,0-29.57,0-44.35,0a1.87,1.87,0,0,1-.7-.08l0-.47Z"/><path class="cls-3" d="M120.69,78.23c.25-.34.61-.23.94-.23q23.1,0,46.19,0c3.23,0,6.45.36,9.67.61a71.79,71.79,0,0,1,9.73,2.23c5.61,1.85,10.7,4.57,14.74,9,4.59,5,6.76,11.08,7.42,17.76a33,33,0,0,1-1.47,14.51c-3,8.35-8.91,13.83-17,17.15a38.18,38.18,0,0,1-7,2.07c-.22.05-.49,0-.59.38,12.65,1.64,23.13,6.77,29.56,18.78V158.6q0-14.86,0-29.74c0-.81.15-1.08,1-1.08,15.5,0,31,0,46.51,0,8.3.05,16.42,1.26,24,4.84a29,29,0,0,1,12.16,10.15,6.07,6.07,0,0,1,.91,1.58,6.6,6.6,0,0,1-.89,2.12c-.44,1.05-.83,2.12-1.2,3.2a2.2,2.2,0,0,0-.35,1.11c-.32,1.07-.57,2.15-.84,3.22a3.5,3.5,0,0,0-.27,2c-.22,2.88,0,5.75,0,8.63a4.68,4.68,0,0,0,.15,2.07,1.11,1.11,0,0,1,.13.27c.14.44,0,.94.25,1.36a.92.92,0,0,1,.13.24,3.06,3.06,0,0,0,.42.85c.28.77.51,1.56.81,2.33a2.85,2.85,0,0,1,.11.72,1.45,1.45,0,0,0,.35.88,9.7,9.7,0,0,1,1.51,3.24,26.82,26.82,0,0,1-9.68,9.88A35.45,35.45,0,0,1,276.49,191a1.87,1.87,0,0,0-1.13.41,9.59,9.59,0,0,0,2.17.4c8.44,1.29,16,4.49,22,10.72s8.43,13.8,7.74,22.42a37.36,37.36,0,0,1-4.17,15.13,32.55,32.55,0,0,1-13.95,13.37c-7.52,3.94-15.64,5.62-24,6.24-2.92.22-5.85.21-8.78.21q-21.16,0-42.32,0c-.91,0-1.17-.2-1.17-1.14q0-35.42,0-70.82v-1.1c-.28-.09-.31.1-.37.25-3.46,8.38-9.69,14-17.8,17.69a60.59,60.59,0,0,1-18.49,4.81,113.07,113.07,0,0,1-12.75.52q-20.81,0-41.6,0c-.92,0-1.13-.24-1.13-1.13q0-64.84,0-129.68C120.73,79,120.7,78.61,120.69,78.23Z"/><path class="cls-4" d="M313.49,128.66c0-4.22,0-8.44,0-12.66,0-6,0-11.92,0-17.88,0-.78.21-1,1-1,15.29,0,30.59,0,45.89,0a60.87,60.87,0,0,1,21.83,3.63c7.93,3,14.32,7.9,17.47,16,4,10.18,4.17,20.38-1.68,30-4,6.57-10.1,10.44-17.33,12.66-1.3.4-2.64.67-3.95,1-.22.05-.51,0-.6.39,1.33.21,2.66.38,4,.64,8.8,1.72,16.42,5.54,22.09,12.68,4.77,6,6.4,12.93,5.72,20.5a38.23,38.23,0,0,1-3.41,13.37,32.4,32.4,0,0,1-14.71,14.78,57.83,57.83,0,0,1-20.78,5.93,106.21,106.21,0,0,1-11.83.53q-21.21,0-42.41,0c-1,0-1.26-.18-1.25-1.2,0-11.92,0-23.84,0-35.76,0-.34,0-.68.06-1,1-.22,1.71.47,2.58.67a27.26,27.26,0,0,1,2.94.82,4.64,4.64,0,0,0,2.15.3c2.82.7,5.69.26,8.53.38a17.77,17.77,0,0,0,1.79-.38,4.88,4.88,0,0,0,2.17-.3c1.23-.15,2.35-.76,3.58-.91a1.58,1.58,0,0,0,1-.35c.61-.29,1.21-.69,1.89-.19a2.85,2.85,0,0,1,.2,1.5v14c0,1.33.05,1.38,1.39,1.38,3.54,0,7.08.09,10.62,0a59,59,0,0,0,12.56-1.42,21.73,21.73,0,0,0,9.84-5,14.36,14.36,0,0,0,4.39-8.35,23.09,23.09,0,0,0-.31-8.92,15.67,15.67,0,0,0-9.8-11.48,32,32,0,0,0-8.4-2.09,4.31,4.31,0,0,1-1.77-.43c-.3-.44,0-.92-.07-1.38.32-1.63.71-3.23.93-4.88a29.44,29.44,0,0,0,0-8.28,21.87,21.87,0,0,1-.53-3.51,2,2,0,0,0-.27-1.41,1.31,1.31,0,0,1-.08-1.14c.31-.38.78-.37,1.21-.45a28.17,28.17,0,0,0,7.39-2.29c4.81-2.33,7.56-6.06,7.94-11.47a18.19,18.19,0,0,0-1.05-7.91,12.66,12.66,0,0,0-7.06-7.13,30.63,30.63,0,0,0-10.43-2.23c-5-.39-10-.19-15-.22-1.46,0-1.48,0-1.48,1.47q0,3.84,0,7.66a2.58,2.58,0,0,1-.19,1.4,1.11,1.11,0,0,1-1.23.1c-1.57-.54-3.16-1-4.72-1.56a1.57,1.57,0,0,0-1.17-.3h-.66c-3-.67-6.1-.43-9.15-.35a26.15,26.15,0,0,0-7,1.44c-.52.16-1,.36-1.56.49A2.56,2.56,0,0,1,313.49,128.66Z"/><path class="cls-3" d="M313.55,182.41a10.4,10.4,0,0,1-.1-1.11q0-21.24,0-42.48c0-.34.05-.68.08-1a27.34,27.34,0,0,1,3.41-1.74,8.37,8.37,0,0,0,1.28-.43c1-.26,1.88-.7,2.87-.9a7.19,7.19,0,0,0,2.47-.37,27.23,27.23,0,0,1,11.94,1.46,3.5,3.5,0,0,1,1,.51,1.59,1.59,0,0,0,1,.47,5.66,5.66,0,0,1,2.77,1.69,13.61,13.61,0,0,1,.11,2.85c0,2.35,0,4.7,0,7,0,1.81,0,1.82,1.77,1.82,2.11,0,4.22,0,6.33,0a5.67,5.67,0,0,1,1.42.1,1.16,1.16,0,0,1,.87,1.24,1.69,1.69,0,0,0,.42,1.07,4,4,0,0,1,.57,2,23.31,23.31,0,0,1,.37,8.89,32.31,32.31,0,0,1-1.54,5.89,1.62,1.62,0,0,1-1.77,1c-2.4,0-4.79,0-7.19,0-.4,0-.83-.09-1.11.32a3.85,3.85,0,0,0-.14,1.51c-.05,3.07.1,6.16-.08,9.23-.5,1.08-1.61,1.37-2.54,1.86a18.61,18.61,0,0,1-1.94.84,2.32,2.32,0,0,1-.63.11,2.23,2.23,0,0,0-1.18.45,11.81,11.81,0,0,1-4.32,1.05,21.75,21.75,0,0,1-6.88-.05c-.53-.1-1.08-.15-1.6-.29a2.42,2.42,0,0,0-1.36-.36c-.56-.09-1.07-.36-1.62-.48a8.3,8.3,0,0,0-1.27-.44c-.81-.43-1.68-.76-2.47-1.24C314.23,182.67,313.8,182.7,313.55,182.41Z"/><path class="cls-5" d="M318.21,184.44c.59-.08,1.06.32,1.6.42.35.38.9.07,1.28.38a28.15,28.15,0,0,0,7.61.38,17.75,17.75,0,0,0,5.42-1.16,2.22,2.22,0,0,1,.71-.2c.31,0,.68.1.92-.24l4.19-2.13c.5.26.42.74.43,1.17,0,2.34,0,4.69,0,7,0,.43.06.91-.41,1.18a8.24,8.24,0,0,0-1.74.57c-.25.18-.6.14-.85.35-1.23.17-2.33.87-3.6.88-.67.26-1.45,0-2.1.39a29.22,29.22,0,0,1-10.63,0c-.63-.42-1.41-.08-2.06-.41a26,26,0,0,1-5.47-1.67c-.09-2.72-.13-5.43,0-8.15.12-.63.47-.72,1-.43A14,14,0,0,1,317,184C317.29,184.42,317.83,184.22,318.21,184.44Z"/><path class="cls-5" d="M336.58,136.63a25.26,25.26,0,0,0-12.14-2c-.3,0-.61,0-.91,0-.81.29-1.71,0-2.5.4a19.66,19.66,0,0,1-2.84.82c-.37.25-.91,0-1.23.44a14.44,14.44,0,0,1-3.42,1.55c-.18-2.9-.12-5.8,0-8.69.09-.58.72-.34,1-.66a35.14,35.14,0,0,1,15.57-2c.81.06,1.6.25,2.41.38.33.29.73.15,1.1.19a.94.94,0,0,1,.56.16,34.5,34.5,0,0,1,4.76,1.48,10.34,10.34,0,0,0,1.05.3c.48.27.41.75.42,1.18q0,3.47,0,6.93c0,.42.06.91-.42,1.17-.93-.25-1.61-1-2.55-1.23C337.18,136.78,336.82,136.85,336.58,136.63Z"/><path class="cls-5" d="M294,154a12.67,12.67,0,0,1,.83-3.27c.29-.3.14-.75.37-1.08a16.07,16.07,0,0,1,2.26-5.26,23.08,23.08,0,0,1,3.12,8.13c.19.33-.08.78.27,1.07a1.52,1.52,0,0,1,.13.94c.22.53-.1,1.17.32,1.67a35.2,35.2,0,0,1,0,10.3c-.34.44-.11,1-.3,1.46a24.56,24.56,0,0,1-1.68,5.82c-.15.28-.23.59-.4.85a13.75,13.75,0,0,1-1.13,2c-.56-1.06-1.12-2.13-1.69-3.19-.18-.2-.15-.46-.21-.69s.1-.68-.24-.92a6.4,6.4,0,0,1-.84-2.43c-.2-.26-.1-.63-.33-.88l0,0a1,1,0,0,1-.2-.76,2.57,2.57,0,0,0-.3-1.63c-.16-.44-.1-.92-.28-1.35a64.77,64.77,0,0,1,0-8.92C293.94,155.27,293.75,154.59,294,154Z"/><path class="cls-6" d="M17.15,311.15a6.93,6.93,0,0,1-2.39,2.08.31.31,0,0,1-.39,0c-.21-.37.23-.5.27-.83-.36.17-.53.37-.32.75-.14.42.35.24.42.45.71.36,1.54.5,2,1.2a.56.56,0,0,1-.72.2,1.34,1.34,0,0,0-2,.21.4.4,0,0,1-.55,0c-.27-.43-.58-.73-1.17-.43.35.31.84.06,1.14.39s.65.45.38.91a.6.6,0,0,1-.32.07,16.39,16.39,0,0,0-6.11-.66,1.6,1.6,0,0,0-.77.22.8.8,0,0,1-.46,0c-.66-.43-.09-1-.22-1.54a2,2,0,0,1-.72,1.64.64.64,0,0,0-.21.65,8.94,8.94,0,0,1,.11,2.13,1,1,0,0,0,.56,1,.94.94,0,0,1,.18.25c.48,1.23.34,1.88-.45,2.37,1.34.69,2.85.42,4.32.5.33,0,.81,0,.83.38s-.44.5-.79.51c-1.86.09-3.74.09-5.6,0a1.28,1.28,0,0,1-1.15-.89A5,5,0,0,1,3,321.57q0-8,0-16a1.93,1.93,0,0,1,.66-1.83,1.06,1.06,0,0,1,.58-.16c2.94,0,5.88-.1,8.82.05A5,5,0,0,1,17.15,311.15Z"/><path class="cls-7" d="M65.89,323.39a9,9,0,0,1-1.09-4.9c0-2.38,0-4.76,0-7.15,0-.8.22-1.14,1-1a5.61,5.61,0,0,0,.71,0c1.9,0,1.9,0,1.91,2s0,3.89,0,5.83a7.53,7.53,0,0,0,.18,1.71A2.69,2.69,0,0,0,73,321.35a5.32,5.32,0,0,0,.69-.73c.18-.26.23-.57.42-.83l0,0a52.61,52.61,0,0,0,.18-7.32c.06-2.54-.24-2.28,2.32-2.29,1.63,0,1.62,0,1.6,1.55,0,3.54,0,7.07,0,10.61,0,.51.13,1,.1,1.52,0,.7-.32,1.07-1.07,1s-1.36,0-2,0c-.8-.26-.32-1.07-.65-1.53-.78.49-1.28,1.31-2.25,1.62a6.89,6.89,0,0,1-3,.27,2.29,2.29,0,0,0-1.25-.32A3.15,3.15,0,0,1,65.89,323.39Z"/><path class="cls-8" d="M292.84,323.82c-.06-.19-.21-.2-.37-.2a3,3,0,0,1-1.05-1.13c0-.33-.27-.48-.48-.66a7.63,7.63,0,0,1-1.13-5.6c.43-.37.33-.89.36-1.37.43-1.07.74-2.21,1.86-2.83h0a3.4,3.4,0,0,1,1.6-1.11c.52.23.65.51.24,1s.08,1.19.59,1.31a.39.39,0,0,1,.27.27,1,1,0,0,1-.51.74,1.3,1.3,0,0,0-.59.52.91.91,0,0,0,.83,1.47c1.28,0,2.56-.06,3.83.06.2,0,.2-.1.24-.23a1.74,1.74,0,0,1,1.16-.22c.77,0,.8-.37.62-1s-.86-1.11-1.21-1.71c.27-1,1.25-1.24,2-1.72.21-.15.37,0,.49.18a.84.84,0,0,0,.84.41,5.89,5.89,0,0,1,1.87,4.43c.28,2.19.28,2.19-1.83,2.19h-7.81c-.32,0-.68-.13-1,.13a2.94,2.94,0,0,0,1.72,3,4.49,4.49,0,0,0,5.17-.86c.36-.34.68-.66,1.19-.3.72.18,1.15.8,1.75,1.16s.34.79,0,1.12a6.58,6.58,0,0,1-2.23,1.55c-.43,0-.75.32-1.14.45A8.06,8.06,0,0,1,292.84,323.82Z"/><path class="cls-9" d="M203.29,313.18a2.37,2.37,0,0,0-2.5,0c-.88,1.26-.65,1.88.76,2.36,1.13.38,2.34.43,3.43.91s2.4,1.06,2.63,2.57a7.11,7.11,0,0,1-.55,3.78c.09.14,0,.19-.1.25-.36.27-.53.72-.92,1a8.58,8.58,0,0,1-7.07.9,5.72,5.72,0,0,1-3.08-1.75.53.53,0,0,1,.13-.64c.54-.59,1.16-1.1,1.72-1.67a.56.56,0,0,1,.81,0,4.31,4.31,0,0,0,1,.95l1.25.58a1.83,1.83,0,0,0,1.55,0l.84-.41c1-1.14,1-1.39.09-2.22a15.64,15.64,0,0,0-3.48-1c-3.24-.67-4.44-3.1-3.37-6.07a4.2,4.2,0,0,1,1.93-1.86,8.94,8.94,0,0,1,6.49-.42,4.1,4.1,0,0,1,2.1,1.34c.37.41.33.71-.1,1a4.43,4.43,0,0,0-.65.49C204.84,314.52,204.84,314.52,203.29,313.18Z"/><path class="cls-8" d="M31.15,321.6a4.18,4.18,0,0,0,4.05.23c.37-.29.8-.48,1.19-.73s.7-.74,1.28-.61a5.44,5.44,0,0,1,1.71,1.1c.57.51.64,1,0,1.52a6.08,6.08,0,0,0-.94.81,7.5,7.5,0,0,1-7.3.95,1.62,1.62,0,0,0-1-.4,6.89,6.89,0,0,1-4.44-5.94,7.68,7.68,0,0,1,2.8-7,7.9,7.9,0,0,1,9-.69,4.62,4.62,0,0,1,.85.86l.46.74c.36.57.45,1.24.86,1.81s0,1.08-.28,1.52-.62.13-.76-.21a15.19,15.19,0,0,1-.88-2.09.67.67,0,0,0-.47-.52,9.94,9.94,0,0,1,.76,1.35,2.54,2.54,0,0,1,.12,1.7.7.7,0,0,1-.79.63c-.43,0-.48-.43-.48-.78a2.66,2.66,0,0,0-1.5-2.63c-.37-.18-.79-.4-.16-.94a6.1,6.1,0,0,1-2.43.35c-1.64-.14-2.41.92-3.05,2.14-.55,1.06-.52,1.08-1.32.19-.07-.08-.1-.19-.25-.16a.39.39,0,0,0,.29.66c.79.12,1,.76,1.25,1.32s.81.29,1.23.29c2.54,0,5.09,0,7.63,0,.71,0,1.32.13,1.27,1.05a.73.73,0,0,1-.23.5c-3,.14-5.9,0-8.85.06a1.85,1.85,0,0,0-1.18.18c-.39.83.41,1.3.61,1.95A1.84,1.84,0,0,0,31.15,321.6Z"/><path class="cls-5" d="M125.17,310.35l.39,0a.88.88,0,0,0,.28.17c.75.18,1.59-.24,2.3.3a2.22,2.22,0,0,1,.16.88c.06,1.59-.11,1.77-1.73,1.79-.5,0-1-.06-1.39.41a26.34,26.34,0,0,0-.12,4.26,33.46,33.46,0,0,0,.16,5.39c.17.93-.21,1.29-1.19,1.3H122.7c-1.46,0-1.63-.2-1.43-1.69a2.65,2.65,0,0,0,.33-1.15v-7.49c0-.27,0-.55-.23-.74a5.55,5.55,0,0,1-.6-.29c-.5-.17-1,0-1.5,0s-.87-.24-.9-.77a4.89,4.89,0,0,1,.16-2.37c.58-.37,1.24-.17,1.86-.19s.78-.21.8-.77c.06-1.16,0-2.34.19-3.5.4-.33.2-.78.25-1.19a3.91,3.91,0,0,1,3.85-3.13c.92,0,1.84,0,2.75,0s1.14.39,1,1.17,0,1.35-.21,2c-.39.48-.9.29-1.39.26a2.11,2.11,0,0,0-2.29,1A5.35,5.35,0,0,0,125.17,310.35Z"/><path class="cls-7" d="M101.68,321.84a.76.76,0,0,0,.6-.39c.33-.24.53-.66,1-.72a6.59,6.59,0,0,1,1.42,1.1c.29.35.76.35,1.12.57a1.85,1.85,0,0,0,1.51,0,6,6,0,0,0,.74-.29,1.52,1.52,0,0,0,.94-1.43,1.42,1.42,0,0,0-1-1.27,5.56,5.56,0,0,0-2-.5c-1.59-.16-3.12-.51-4.09-1.9a4.53,4.53,0,0,1,0-5.08c.68-.48,1.07-1.39,2.08-1.36,1.37-.29,2.73-.83,4.16-.45a10,10,0,0,0,2.36.46,2.1,2.1,0,0,1,1,.49c1,.75,1,1.28,0,2.08-.29.24-.57.47-.87.7a1.22,1.22,0,0,1-1.66,0,2.79,2.79,0,0,0-2.86-.51,1.1,1.1,0,0,0-.82,1.05c0,.53.36.78.79.95a7.14,7.14,0,0,0,1.75.5,2.62,2.62,0,0,1,1.33.46c.85.44,1.41,1.41,2.53,1.33a3.91,3.91,0,0,1,1,4.45c-1.07,2.45-3.15,3.18-5.54,3.27a8.92,8.92,0,0,1-3.83-.44,16,16,0,0,0-1.48-.78,1.18,1.18,0,0,1-.49-.33,1.09,1.09,0,0,1-.07-1.61A1,1,0,0,1,101.68,321.84Z"/><path class="cls-9" d="M167.28,323.91a7.45,7.45,0,0,1-5.78,1c-.21-.3-.58,0-.82-.23-1.28-.15-2.18-1-3.2-1.66a2,2,0,0,1-1-1.22,7.48,7.48,0,0,0-.84-1.73,5.43,5.43,0,0,1-.36-3.46,2.94,2.94,0,0,0,.37-1.51,3,3,0,0,1,1.24-2.28c.37-.13.37-.56.62-.78a5.4,5.4,0,0,1,3.66-1.94c1.28,0,2.57-.08,3.86,0a4.65,4.65,0,0,1,3,1.37c.56.54.56.95,0,1.45a4.5,4.5,0,0,0-1,.89c-.62.9-1.07,1-2,.38a3.29,3.29,0,0,0-4.52.32c-.63.43-.86,1.17-1.31,1.74s-.15,1.54-.42,2.22c-.08-.08,0-.24.08-.39.46,0,.43.36.51.63a4.66,4.66,0,0,0,.67,1.36,3.62,3.62,0,0,0,4.53,1.26c1.78-.93,1.77-1,2.88.64C167.88,322.69,168.15,323.35,167.28,323.91Z"/><path class="cls-10" d="M213.93,316.46c-.3,0-.84.27-.74-.36s-.7-1.38.59-1.29c-.06-.45-.41-.3-.56-.46a.43.43,0,0,1-.09-.47.31.31,0,0,1,.41-.21c1.13.55,1.26-.66,1.36-1a1,1,0,0,1,.84-.85,1.82,1.82,0,0,0,1.3-.87c-.52,0-.83-.32-1-.91a25.19,25.19,0,0,0,3,0c.13,0,.36.05.39,0,.55-1,1.52-1.13,2.46-1.4.28-.08.45-.31.54-.21.53.56,1.47.63,1.85,1.18a1.28,1.28,0,0,0,1.16.53c.68.05,1.35-.23,2.07.16.17.1.86-.36,1.37-.16.14.44-.8.14-.46.87.23.48-.62,0-.85.44.32.34,1,.21,1.22.95.15.57,0,.6-.39.57s-.65-.17-.84.14-.8.66.09.71c-.26.84-1.65.72-1.49,1.88a.69.69,0,0,1,0,.2c-.06.14-.21.1-.3.14-1.08.48-2.14,1.05-3.24.05,0-.11,0-.21.09-.23.43-.13.94-.33,1-.78,0-.6-.6,0-.88-.32-.45-.55-1.09,0-1.64-.12-.26-.07-.29.24-.23.44s.21.2.37.06a.8.8,0,0,1,.73-.22c.19.35-.14.64-.13,1,0,.51-.78.3-1.16.2s-.54-.36-.75.24-.69.52-1.06-.18c0,.63-.54,1-.29,1.54.31-.09.51-.58.85-.38s.21.64.15.94c-.19.86.9,1.38.34,2.3a27,27,0,0,0,3.85-.71c.41.84,1.41-.65,1.78.45,0,.07.13-.06.19-.14a.87.87,0,0,1,1.13-.13c.43.2.7.86,1.1-.07.12-.29.53,0,.76.23a.57.57,0,0,1,.07.88,1.53,1.53,0,0,0,.35,2.09c.45.35.36,1.93-.14,2.41l-.14,0c-.31-.21-.93-.12-.69-.85.08-.24-.47-.2-.6-.47a1.14,1.14,0,0,1-.11.44l-.1.09c-.62-.2-1.09.76-1.75.21a1.54,1.54,0,0,0-.15.46c0,.22.42.49-.14.55-.41,0-.27-.3-.32-.49s0-.28-.26-.3c-.13.23-.28.51-.42.78s-.11.44-.28.34c-.53-.31-1,.06-1.53,0-.3,0-.47-.39-.64-.49a1.8,1.8,0,0,0-2.23.24.87.87,0,0,1-1.06.26c-.36-.16-.12-.47,0-.77.16-.49-.49-1-1-.89a.67.67,0,0,1-.57,0c-.76-.39-.93-1.45-1.9-1.64-.19,0,.57-.26.2-.6s-.74-.77-1.21-.09c-.09.13-.25.41-.48.21s-.08-.37,0-.56a8.76,8.76,0,0,0,.52-.95c.07-.2.2-.47,0-.66a.44.44,0,0,0-.56,0c-.13.09-.26.28-.42.07s-.09-.41,0-.46c1.24-.46.63-1.47.6-2.24a4.62,4.62,0,0,1,.13-1.21,8.13,8.13,0,0,0,.13-.84C213.86,315.92,214.1,316.25,213.93,316.46Z"/><path class="cls-10" d="M146.83,326.31c-.19-.35.65-.44,0-.78s-1-.31-1.22.22c-.33.86-.49.69-.92.06a.71.71,0,0,0-1.17,0,1.46,1.46,0,0,1-1.37.51c-.19,0-.45.08-.55-.15s.42-.18.37-.53c-.86-.26-1.62.32-2.45.37a2.15,2.15,0,0,1-1-.09c-.38-.16-.59-.06-.91.26s-.61.16-1,0c.26-.33.88-.73.59-1-.65-.5-1.14.17-1.55.57-.32-.09-.33-.3-.25-.42.49-.8.1-.84-.57-.71s-.71-.17-.72-.69.19-1.37-.27-2a3.25,3.25,0,0,0-.26.3c-.29.38-.4,1-1.11.78s-.52-.8-.76-1.21c-.13-.22-.18-.73.34-.78s.41.34.44.64,0,.35.2.44c.54-.36.38-1.21,1.08-1.5.16-.07.46-.56-.24-.67-.44-.07-.35-.7-.34-1.05s.31-.31.61-.11.3-.12.26-.3-.07-.5.1-.55c.74-.23.83-.68.57-1.31a3.83,3.83,0,0,1,.71-1,.64.64,0,0,0,.17-1s-.13-.1-.12-.13c.24-.93-.63-1-1.09-1.38a.57.57,0,0,1-.2-.79c.15-.25-.07-.85.55-.72.38.08.48-.19.55-.43s-.1-.38-.33-.4-.44-.17-.41-.47a.33.33,0,0,1,.32-.33c.29,0,.64-.14.83.21.09.19,0,.75.33.07a.59.59,0,0,1,.8-.28c.85.43,1.47-.29,2.17-.23.15-.56-.77-.47-.39-.8s1.08-.71,1.55-.45c1.2.66,2.43.35,3.66.35.35,0,.45,0,.52.38a1.17,1.17,0,0,0,1.59.91c.7-.38.9.13,1.26.43a.81.81,0,0,1,.23,1.14,1.83,1.83,0,0,0,.89,2.41c.36.23.4.52.22,1.76-.39-.13-.16-.62-.51-.84,0,2.8,0,5.55,0,8.3,0,.6.14,1.24-.56,1.61-.17.1-.2.28-.09.53C147.61,326,147.34,326.21,146.83,326.31Z"/><path class="cls-7" d="M3.29,323a3,3,0,0,0,1.71.42c1.46,0,2.92,0,4.38,0a1.38,1.38,0,0,0,1.19-.41H7.5c-.56,0-1.15.11-1.6-.41-.13-.14-.41-.35-.48.12a.23.23,0,0,1-.38.16c-.16-.15-.17-.46,0-.55,1-.53,1-1.34.72-2.29a1,1,0,0,1,0-.3.65.65,0,0,0,.19-.32.8.8,0,0,1-.19.32c-.61.07-.82-.16-.84-.79,0-.86.27-1.75-.24-2.58-.13-.21.12-.36.25-.5.45-.45.93-.86.88-1.62,0-.27.26-.65.59-.51s.15.44,0,.68a1.27,1.27,0,0,0-.21,1.23.38.38,0,0,1,.1.4c-.35.4-.13.89-.22,1.33.15-.32-.2-.77.26-1a.42.42,0,0,1,.42.21,35.56,35.56,0,0,1,.16,4.5.48.48,0,0,0,.49.41c1.3,0,2.61,0,3.91,0,.09,0,.16-.11.21-.2a1.67,1.67,0,0,1,.57-.23c2-.62,2.42-1.24,2.43-3.31.19-.7-.41-1.16-.55-1.76-.17-.24-.44-.42-.42-.76h0c.33-.23.83-.14,1-.73a.53.53,0,0,1,1-.1c.34.55.82.41,1.3.41a4.66,4.66,0,0,1,1.73,4.29c0,.41-.07.81-.11,1.21s0,.78-.43,1a6.36,6.36,0,0,1-2.44,2.44,5.31,5.31,0,0,1-3.43,1c-2.73.15-5.48.11-8.23,0a1.6,1.6,0,0,1-.69-1.67A.69.69,0,0,1,3.29,323Z"/><path class="cls-11" d="M238.66,306.47v-3h-.22c0,2.1,0,4.2,0,6.29,0,.58.54.73,1.07.41a4.94,4.94,0,0,1,3.47-1.05,2.73,2.73,0,0,1,1.56.65c.37.36.7.77,1.28.34.14-.1.33-.05.33.06,0,1,1.13,1.42,1.29,2.46.57,3.74.26,7.5.39,11.25,0,1-.31,1.29-1.27,1.22a14.27,14.27,0,0,1-3.68-.34c-.48-.17-.52-.61-.26-.75.79-.42.62-1.19.65-1.77.1-2,0-3.94,0-5.92A2.76,2.76,0,0,0,243,315c-.17-.32-.22-.49-.66-.31a.54.54,0,0,1-.71-.53c0-.19,0-.27-.21-.23a9.08,9.08,0,0,0-2.3.72,2,2,0,0,0-.71,1.83c.12,1.88,0,3.75.06,5.62a14.41,14.41,0,0,1,.06,2c-.09.9-.21,1.21-1.19,1.05a22.91,22.91,0,0,0-2.75-.05c-1.17-.05-1.37-.32-1-1.35.13-.33.48-.62-.2-.75-.34-.07-.24-.45-.24-.71,0-6,0-12.05,0-18.08a11.38,11.38,0,0,1,.42-2.2c.12-.55.56-.64,1-.6a11.17,11.17,0,0,0,3.11,0c.84-.16,1.18.6,1.23,1.15.13,1.3,0,2.62,0,3.93Z"/><path class="cls-8" d="M278.38,302.19a6.67,6.67,0,0,1,3.35,0c-.1.2-.53.26-.37.53a3.63,3.63,0,0,1,.2,2.08c0,5.72,0,11.44,0,17.16,0,.71-.24,1.38-.17,2.09a.36.36,0,0,1-.38.39,6.36,6.36,0,0,1-2.71-.17,2.87,2.87,0,0,1-.1-1.2q0-9.57,0-19.15c0-.3.07-.6.1-.9.49,0,0-.93.7-.72C278.81,302.25,278.57,302.38,278.38,302.19Z"/><path class="cls-12" d="M101.68,321.84l-.28.36c-.71.5-.71,1,0,1.46l.41.25c.2.35.76.27.85.74-.11.58.47.43.66.69-.16-.29-.79-.14-.61-.74a.64.64,0,0,1,.41,0,10.44,10.44,0,0,0,6.4,0c3.15-1.12,4.14-4.59,2-6.91-.9-.28-1.59-1-2.51-1.23a27.07,27.07,0,0,0-2.84-.79c-.65-.25-1.33-.49-1.3-1.34s.65-1.23,1.4-1.4a2.88,2.88,0,0,1,2.83.73c.45.47.75.47,1.18.08.15-.14.35-.21.51-.34,1.62-1.3,1.56-1.71-.38-2.63-.14-.17-.47-.08-.5-.38a.3.3,0,0,1,.1-.24c.8.6,1.54-.26,2.43-.19-.36.83-.76,1.59.6,1.71.29,0,.54.56-.09.86s-1.39.37-.73,1.32c.1.14,0,.43-.15.43-.83,0-.94.88-1.47,1.24-.06,0-.34-.19-.47-.34-.61-.71-1.66-.4-2.31-1,0,0-.2.08-.21.15s0,.48.2.49a1.51,1.51,0,0,1,1.49.87c.42.68,1.48.28,2.25.38s1.24.59,1.11,1.26c-.21,1.17.07,1.57,1.23,1.75.36.05,1.13,1.32,1,1.64,0,.07-.17.17-.2.16-.82-.43-.5.28-.56.56s.1.72-.42.79c0,.21-.09.45-.36.31-.87-.46-.94.1-.84.69.07.43-.59.7-.19,1.15l-.33.17c-.12.08-.23-.69-.3,0s-.44.56-.84.56a1.59,1.59,0,0,1-2,1.2,1.68,1.68,0,0,0-1.25,0c-.19-.4.43-.37.26-.7-.49-.39-.82,1-1.5.06-.33-.47-1.25-.21-1.91-.1,0,.46.5.21.55.56,0,0-.12.13-.2.15-1.07.3-2-.45-3.05-.44-.39,0-.37-.44-.14-.7.49-.57,0-.77-.37-.8-.63,0-.92-.31-.8-.9s-.47-.29-.55-.68C100.66,322.81,100.51,321.18,101.68,321.84Z"/><path class="cls-12" d="M39.26,323c.62-.54.54-1-.18-1.37-.52-.29-1-.67-1.48-1-.31-.4-.61.3-.92,0s-.15-.76.26-.72c.56,0,1.35-.45,1.64.5.06.19.19.17.32.14s.28-.15.22-.29-.3-.43.14-.47.42.17.42.45a.34.34,0,0,1,0,.1c-.16,1,0,1.61,1.25,1.53.4,0,.19.33.1.6s-.76.06-.61.6c-.66.14-1.1.39-.92,1.23,0,.2-.42.45-.74.36a1.57,1.57,0,0,0-1.39.37c-.26.17-.67.2-.48.59s.4-.15.63-.11a1.73,1.73,0,0,0,.33,0c-.05.78-.65.82-1.13.75a28.05,28.05,0,0,0-4.3,0c-.73,0-1.78.33-1.84-1a.63.63,0,0,0-.68-.48,2,2,0,0,1-1.76-.95c-.36-.47-1.21-.23-1.28-1-.28.12-.26-.08-.26-.24,0-.58-.06-1-.82-.59-.33.16-.82-.12-.68-.52A7.33,7.33,0,0,0,25,316.9a1.33,1.33,0,0,1,0-.4h0c.82-.3.69-1.08.73-1.68,0-.36-.13-.78-.12-1.18h0c.56-.42,1.3-.69,1.12-1.65,0-.22.34-.13.5-.22s.78.09.93-.42c-.25-.32-.67,0-.94-.26.36-1.11.84-1.13,2.08-.84a2.72,2.72,0,0,0,2.44-.83c.27-.28.44-.6.91-.36.26.13.47,0,.52-.29.12-.72.65-.31,1-.31l-.63.13c.82-.06,1.41.84,2.26.55a.61.61,0,0,1,.74-.38c.39.09.07.39.14.56.18.44.21,1,.92,1s.67.79.83,1.3c-3.71-2.45-7.73-2.16-10.54.74-3.46,3.59-2.18,10.14,2.32,11.9a2,2,0,0,1,.88.35,7.77,7.77,0,0,0,7.35-1C38.9,323.66,39,323.17,39.26,323Z"/><path class="cls-13" d="M56.25,314.08c-.06.26.44.52.24.54-.88.08-.77,1.37-1.56,1.27a9.91,9.91,0,0,1-1.1-.2c.05-.65.67-.24.86-.56-.53-.6-.73-.65-1-.08a5.13,5.13,0,0,0-.88,2.53c0,2.08,0,4.15,0,6.23,0,.9-.32,1.32-1.25,1.28s-1.64,0-2.45,0-1-.45-1-1.2a70.44,70.44,0,0,0,0-10.87c0-.78.36-1.53,0-2.37-.11-.26.57-.72,1.1-.67,1.19.1,2.43-.33,3.59.34a1.07,1.07,0,0,0,.89,0,10.08,10.08,0,0,1,3-.79l-.49-.23a2.19,2.19,0,0,1,2.73,2c0,.35-.15.33-.36.27s-.45.06-.49.34,0,.43.25.49c.65.15.68.46.28.92a.42.42,0,0,0-.06.19c-.12,1.39-.13,1.41-1.37.78A1.42,1.42,0,0,0,56.25,314.08Z"/><path class="cls-14" d="M179.14,302.39v8c.28.32.57.64.45,1.12-.16.31-.33.68-.74.56s-.4-.59-.4-1c0-2.79.05-5.58-.06-8.37a3.33,3.33,0,0,0-2.82-.25c-.32.29-.23.69-.23,1.06,0,3.29,0,6.59,0,9.88s0,6.45,0,9.68c0,.42-.15.9.3,1.22,2.8.4,2.8.4,2.8-2.37,0-1.77,0-3.54,0-5.31.07-2.33,1.48-3.74,3.61-3.67a2.66,2.66,0,0,1,2.63,2,7.21,7.21,0,0,1,.26,2.12c0,2,0,4.08,0,6.12,0,.82.29,1.15,1.13,1.17,1.94,0,1.94.07,1.94-1.86v-1.93a36.52,36.52,0,0,0-.46-8c.09-.27.25-.43.56-.36v.2c.16.26.13.62.41.82h0a1.54,1.54,0,0,1,.32,1.15c-.08,3,.07,5.95,0,8.93a2.34,2.34,0,0,1-.32,1.37.43.43,0,0,1-.49.4c-1,0-2,.06-3,0-.5,0-1.15-.12-.73-1.07a5.35,5.35,0,0,0,.08-2c0-1.46,0-2.93,0-4.39a2.48,2.48,0,0,0-.45-1.7.7.7,0,0,1-.18-.69c0-.26,0-1.13-.88-.81a.88.88,0,0,1-.76-.12,1.76,1.76,0,0,0-2.6,1,7.08,7.08,0,0,0-.46,2.3c0,2.14,0,4.28,0,6.43,0,.78-.24,1.17-1.06,1.06-1.15-.15-2.38.39-3.45-.41-.38-.61.11-1.17.11-1.77,0-6.5,0-13,0-19.51a.62.62,0,0,0-.1-.38v-.82c.2-.73.81-.76,1.36-.69a9.83,9.83,0,0,0,2.3,0C178.91,301.46,179.25,301.72,179.14,302.39Z"/><path class="cls-15" d="M3.7,324.67c3.43-.05,6.89.42,10.29-.37.53-.12,1-.32,1.54-.48,0,.56-.5.71-.83.73-1,.07-1.9.52-2.88.52-2.69,0-5.38,0-8.07,0-.94,0-1.31-.29-1.3-1.3,0-6.37,0-12.73,0-19.1,0-1.44,0-1.48,1.5-1.48,2.42,0,4.84,0,7.26,0A8.46,8.46,0,0,1,15,304a2,2,0,0,0,.75.17c.32,0,.88-.23.72.56-.09.48.61.3.83.74a7.78,7.78,0,0,1,.41,5.55c-.07.28-.32.15-.51.15a8.68,8.68,0,0,0,.48-2.26,4.92,4.92,0,0,0-4.3-5.08c-.43-.22-.92,0-1.36-.15-2.64-.09-5.28,0-7.92,0a.93.93,0,0,0-.75.25,1.26,1.26,0,0,0-.16.33c-.12,2.21,0,4.42-.05,6.63,0,4,0,8,0,11.94C3.07,323.48,3,324.2,3.7,324.67Z"/><path class="cls-16" d="M256,321.81a5.84,5.84,0,0,0-.21-2,38.56,38.56,0,0,0,0-6.88,2.72,2.72,0,0,1,0-1.3c-.2-1.43,0-1.63,1.58-1.63.55,0,1.09,0,1.64,0a1.23,1.23,0,0,1,1.33,1.5,39.37,39.37,0,0,0-.22,7.28c.07,1.82,1.18,3.09,3,2.69a.88.88,0,0,0,.82-.85h0c1.19-.39,1.41-1.38,1.42-2.44,0-2.37,0-4.75,0-7.13,0-.66.27-1,.95-1.06s1.64,0,2.45,0c.49,0,.89.18.73.81a8.54,8.54,0,0,1,.08,2.42c0,3.56-.12,7.13.08,10.7a1.67,1.67,0,0,1-.19,1,7.1,7.1,0,0,1-3.69,0,.22.22,0,0,1,0-.29,1,1,0,0,1,.3-.14l.33-.05a17.83,17.83,0,0,0,2.19-.09c.33-.17.32-.49.32-.8q0-6.06,0-12.12a1,1,0,0,0-.15-.57c-.72-.35-1.48-.09-2.21-.17-.48,0-.55.26-.52.64,0,2.21,0,4.43,0,6.64a4.47,4.47,0,0,1-1.24,3.35,3.36,3.36,0,0,1-3.43.69c-1.17-.32-1.56-1.35-1.78-2.42a12.4,12.4,0,0,1-.09-2.44c0-1.7,0-3.4,0-5.1,0-1.14-.18-1.3-1.3-1.33h-.52c-1.14,0-1.24.08-1.22,1.21,0,3-.15,6.05.11,9.08a1.22,1.22,0,0,1-.13.79A.34.34,0,0,1,256,321.81Z"/><path class="cls-17" d="M39.69,318.52v-.39c.41-.47,0-1.06.23-1.57a.8.8,0,0,1-.82.55H30.44a1.12,1.12,0,0,1-1-.61c.08-.27-.68-.19-.25-.67.16-.17-.2-.11-.33-.15-.35-.09-.87.23-1-.35s.09-.91.67-1.25c-.1.58.43.79.53,1.27.06.24.3.06.34-.07a11.59,11.59,0,0,1,1.34-2.22c.47-.86,1-.54,1.49-.65a8.8,8.8,0,0,0,2.53-.37,1.31,1.31,0,0,1,1.15.08c-.11.44-.49.4-.86.65,1.41.2,1.74,1.33,2.24,2.29a.91.91,0,0,1-.11.76c-.07.18,0,.54.25.59A.49.49,0,0,0,38,316a2.7,2.7,0,0,0-.61-2.54c-.28-.23-.73-.34-.51-.84a.33.33,0,0,1,.44-.15c.38.17.79.44.78.86,0,.88.82,1.41.83,2.26a.22.22,0,0,0,.31.17,3.31,3.31,0,0,0,.33-1.53c-1-.33-.44-1.23-.7-1.82a8.12,8.12,0,0,1,1.59,6.11A.61.61,0,0,1,39.69,318.52Z"/><path class="cls-18" d="M69.08,325c2,.28,3.83-.12,5.07-1.94a2.47,2.47,0,0,1,.45-.4c.42.62-.12,1.39.3,2,3.08.22,3.08.22,3.08-2.77,0-3.54,0-7.07,0-10.61,0-.76-.21-1-1-1-2.58,0-2.56,0-2.6,2.6a37,37,0,0,1-.2,6.49,1.11,1.11,0,0,1-.16.35c0-2.89,0-5.77,0-8.66,0-.83.36-1.23,1.17-1.15a13.47,13.47,0,0,1,3.21.23c.67.22.48.76.42.83-.72.85-.42,1.87-.46,2.78-.11,2.75-.05,5.5,0,8.26,0,.67.15,1.34.19,2a.87.87,0,0,1-1,1,19.05,19.05,0,0,0-2.14,0c-.88.12-1.29-.14-1.16-1a.42.42,0,0,0-.55.37c0,.61-.47.54-.9.68a15.46,15.46,0,0,1-3.57.46c-1.32.12-3.13-1-3.33-2.18.66.44,1.14,1.17,2,1.3C68.27,324.86,68.72,324.77,69.08,325Z"/><path class="cls-19" d="M121.47,323c-.14,1.69-.14,1.69,1.56,1.69,1.93,0,1.93,0,1.94-1.91,0-3.05,0-6.1,0-9.15.12-.31.38-.34.67-.34h1c1.54,0,1.59.32,1.58-1.49,0-.3-.06-.62.21-.86a5.9,5.9,0,0,1,.11,2.86c0,.18-.26.17-.43.14a5.55,5.55,0,0,0-.8-.13c-2-.07-2.18.18-2.1,2.22.08,1.89,0,3.79,0,5.69a2.62,2.62,0,0,0,.28,1.45,1.31,1.31,0,0,1-1.21,1.87c-.78,0-1.57,0-2.35,0s-1-.27-1-.94c.08-3.15-.19-6.31.14-9.46.06-.59-.06-.94-.91-.79-.61.11-1.73.78-1.92-.67a11.27,11.27,0,0,1,0-3.07c.86-.41,1.77-.12,2.66-.21.28-.51-.06-1.11.2-1.63v-.2a.3.3,0,0,1,0-.42v-.4a.46.46,0,0,1,0-.61,1.67,1.67,0,0,0,.21-1c-.1-.21,0-.24.19-.25a.32.32,0,0,1,.13.23,16.46,16.46,0,0,0-.16,3.84c0,.68-.22.9-.88.87s-1.28,0-1.92,0a9.89,9.89,0,0,0-.12,2.49c0,.45.29.44.61.44.64,0,1.28,0,1.92,0l.42.29c.26.24.21.56.21.86q0,3.84,0,7.66A1.21,1.21,0,0,1,121.47,323Z"/><path class="cls-20" d="M94.69,313.66a5.1,5.1,0,0,1-2,.18c-.22,0-.55,0-.57.27s.36.3.6.34.76-.16,1,.28c-1.68.36-1.68.36-1.68,2.18,0,2.35,0,4.7,0,7,0,.86-.54,1.39-1.36,1.24a10.1,10.1,0,0,0-1.82-.1c-1.13,0-1.47-.3-1.29-1.41a46.41,46.41,0,0,0,.17-6c0-1,0-2.05-.06-3.08a.59.59,0,0,0-.49-.64,2.26,2.26,0,0,0-2.26.56c-.64-.88.18-1.79,0-2.68-.14-.53-.29-1,.18-1.49l.14.12a3.69,3.69,0,0,1,.21,1.71c0,.62.3.94.93.94h.51c1.32.08,1.6.34,1.61,1.68,0,2.76,0,5.51,0,8.27,0,.42-.15,1,.37,1.17a3.06,3.06,0,0,0,2.19-.05c.38-.17.27-.66.27-1q0-3.82,0-7.65c0-.37,0-.75,0-1.12a1.18,1.18,0,0,1,1.19-1.25c.7-.08,1.53.26,2-.32s.13-1.32.27-2a1.24,1.24,0,0,1,.14-.38.24.24,0,0,1,.32-.1h0a11.2,11.2,0,0,1,0,3.27h0A.5.5,0,0,1,94.69,313.66Z"/><path class="cls-21" d="M160.29,314.43a3.46,3.46,0,0,1,4.9-.38c.66.52,1.07.46,1.47-.15s.94-.86,1.37-1.34c.24-.28.31-.53,0-.76a5.41,5.41,0,0,0-2.73-1.44,12,12,0,0,0-4.43,0c-1.35.13-2.28,1.09-3.39,1.7,0-.26-.08-.53.11-.78s.12-.2,0-.46c-.05-.09,0-.25,0-.38s.18-.32.32-.22c1.17.83,2-.42,3-.47a6.48,6.48,0,0,0,2.39-.57c.56-.25,1.14.35,1.61.59.92.46,2,.28,2.84.87.24.17.35-.12.4-.3s0-.44.35-.33a.32.32,0,0,1,.23.47s0,.08,0,.1c.95,1.73-.28,2.49-1.46,3.27a.59.59,0,0,1,0,.82h0c-.16.14-.32-.31-.54,0a.7.7,0,0,1-1.1.16l-.21-.2a1.88,1.88,0,0,1-.81-.61h-.21a.45.45,0,0,1-.47.06,2.38,2.38,0,0,0-2.36.2C161.22,314.54,160.76,314.84,160.29,314.43Z"/><path class="cls-22" d="M302.42,312c-.55.26-1.13.59-1.07-.52a14.59,14.59,0,0,0-2.2,1.55s-.12.1-.17.09a8.33,8.33,0,0,0-4.26.32c-.46-.41-.91.52-1.37,0,0-.39.52-.12.57-.45-1-.5-1-.55-.23-1.26.43-.38,0-.48-.06-.7a.53.53,0,0,1,.54-.49,7.65,7.65,0,0,0,2.5-.33,5.28,5.28,0,0,1,2.3.08.54.54,0,0,1,.5.56c0,.34-.25.44-.53.51a3.56,3.56,0,0,1-1.52.06c-.95-.18-1.71.71-2.24.39.84.19,2.05-.4,3.31-.2a1.08,1.08,0,0,0,1-.28,1.52,1.52,0,0,1,1.67-.39A5,5,0,0,1,302.42,312Z"/><path class="cls-23" d="M160.29,314.43c.56.15,1-.25,1.4-.46a2.56,2.56,0,0,1,2.72.08c0,.23,0,.66-.25.55-.44-.24-.95.17-1.25-.19-.17-.19-.27-.44-.5-.23a.47.47,0,0,0,.07.68c.44.27.27.79.56,1.23h-2.31c-.14-.11-.12-.29-.2-.42a.75.75,0,0,0,.2.42c-.18.32-.58.64-.39,1,.56,1.05,0,2.06,0,3.09a.31.31,0,0,1-.44,0c-.68-.53-.68-1.37-1-2.08a2.14,2.14,0,0,1,.19-2C159.49,315.53,159.63,314.8,160.29,314.43Z"/><path class="cls-24" d="M278.33,324.26h3c-.16-.59-.7-.23-.87-.68,1.07,0,.95-.72.95-1.43,0-6.2,0-12.39,0-18.58,0-.71-.51-.47-.74-.81.31-.27.49-.71,1.05-.58a2.19,2.19,0,0,1,.11,1.1c0,6.81,0,13.61,0,20.41,0,.84-.19,1.16-1.06,1.06-.63-.07-1.29,0-1.93,0C278.57,324.73,278.2,324.77,278.33,324.26Z"/><path class="cls-23" d="M188.55,324.68c0-3.82,0-7.64,0-11.45.4,0,.66-.75,1.14-.22.28.31.07,2.12-.28,2.23a.58.58,0,0,0-.41.87c.66,1.12.28,2.32.36,3.48.05.85,0,1.7,0,2.55,0,.4-.08.81.51.94s.34.56.26.86-.34.76-.68.55S188.86,324.73,188.55,324.68Z"/><path class="cls-25" d="M121.51,305.48l-.24.19a8.1,8.1,0,0,1-.19-1.84c0-.22.11-.34.36-.39a1.64,1.64,0,0,0,1.28-1.42c.08-.62.31-.51.73-.53a34.38,34.38,0,0,1,5.65,0c.83.09.87.58.57,1a1.73,1.73,0,0,0-.21,1.61.76.76,0,0,1-.56,1.2c-.84,0-1.65.93-2.52.14-.08-.07-.27,0-.4,0,.29-.72.94-.56,1.5-.57s.9.23,1.32-.09c0-.75.1-1.49.17-2.23,0-.38,0-.72-.44-.76-1.63-.13-3.27-.32-4.79.48a3.33,3.33,0,0,0-1.89,2.49C121.67,305,122,305.42,121.51,305.48Z"/><path class="cls-26" d="M256,321.81h.45c.37,0,.51.32.62.59,1.13,2.78,5.2,3,7.15,1.67a3.67,3.67,0,0,1,1.2-.75c.88.26.46.88.39,1.4v.17c-.44-.07-.44-.07-.61-.7-.46.32-.82.81-1.37.89s-.61.39-.47.83c-.46,0-.93-.11-1.35.29s-.63.07-.92-.13c0-.31.48,0,.48-.41-1-.14-2,.49-3,.56,0-.43.41-.2.53-.41-.43-.59-1.36-.58-1.63-1.36-1.84.37-.93-1-1.08-1.69A5.44,5.44,0,0,0,256,321.81Z"/><path class="cls-27" d="M95.3,310.36l-.26.05a4.84,4.84,0,0,1-2.89.16,1,1,0,0,1-.76-1,6.69,6.69,0,0,1,.34-3.6,11.08,11.08,0,0,1,1-1.15,2.27,2.27,0,0,1,1.75-.38c.57.09.79-.21.89-.72s0-1.29.14-1.92a.55.55,0,0,1,.2-.25c.61-.06.46.8,1,.83,0,0,0,.13,0,.15-1.06.68-.52,1.64-.46,2.53.07,1.05-.93.89-1.49,1.16a3.3,3.3,0,0,1-1.19,0c.28-.62.86-.24,1.31-.63-.46-.29-.72-1.19-1.28-.08-.25.51-.88.1-1.17.65-.59,1.09-.36,2.24-.37,3.37,0,.36.33.37.61.37h1.84C94.83,310,95.23,309.85,95.3,310.36Z"/><path class="cls-23" d="M188.13,312.21l-.44.21c-.37.06-.52-.23-.7-.45a4.15,4.15,0,0,0-2.09-1.45,5.4,5.4,0,0,0-3.57,0c-.64.11-1.05.8-1.77.68a.72.72,0,0,1-.42-.84c.66-.05,1.22-.5,1.92-.48.19,0,.55-.22.56-.36,0-1,1.06-.74,1.57-1.13.13-.1.86-.25.55.5-.08.2.25.17.33.26.33.37-.27.07-.17.36.84,0,1.57.66,2.39.74C187.6,310.36,187.78,311.31,188.13,312.21Z"/><path class="cls-28" d="M301.18,311c-.62.17-1.3.18-1.72.84a.74.74,0,0,1-.86.16c-1.06-.48-2.14.5-3.22-.08-.32-.17-.63.73-1.23.39.23-.67.63-.71,1.31-.8,1.2-.17,2.39-.22,3.59-.33.19,0,.36-.25.26-.32s-.43-.41-.83-.43c-1.44-.1-2.81.57-4.25.35,0-.39.33-.24.5-.36a8.88,8.88,0,0,1,5.35,0A2.13,2.13,0,0,1,301.18,311Z"/><path class="cls-29" d="M207.36,318.92c-.44-1.44-1.62-2-2.9-2.41s-2.52-.52-3.71-1a1.07,1.07,0,0,1-.81-1.11c0-.58.18-1.07.85-1.18,0,.23,0,.47-.06.7-.13.65-.09,1.13.69,1.42,1.2.44,2.51.43,3.66,1a.69.69,0,0,0,.82-.15.45.45,0,0,1,.46,0c.17.17-.05.26-.16.37-.28.27,0,.29.16.37a2.7,2.7,0,0,1,1.66,2.34c.11.62.07,1.26.16,1.89.11.83-.16,1.34-1,1.46A6.69,6.69,0,0,0,207.36,318.92Z"/><path class="cls-21" d="M155.45,316.49a6.67,6.67,0,0,0,.36,3.67c.38.51.51,1.14.84,1.67l.83,1.2c-.37,0-.74-.08-1.11-.09s-.56-.08-.36-.46c.41-.77-.16-.66-.59-.67h0c.24-1.26-.48-2.38-.53-3.62a6,6,0,0,1,.11-1.65c-.31-.28-.32.3-.57.14-.07-.46.36-.63.55-.93s-.29-.8.39-.48a.66.66,0,0,0-.39-.9.68.68,0,0,1-.33-.88c.18-.42.53-.28.84-.16.11.37-.43.23-.36.53a.32.32,0,0,0,.22.16c.37.05.41-.21.5-.49.16-.45.4-.86,1-.7a6.21,6.21,0,0,0-1.05,2.2C155.62,315.5,155.73,316,155.45,316.49Z"/><path class="cls-30" d="M198.41,310.8c-1,.87-2,1.74-2.09,3.19-.21,2.47.93,3.93,3.52,4.57a9.22,9.22,0,0,1,3.64,1.17c.07.15.34.22.17.45a14.35,14.35,0,0,0-3.85-1.25c-1.55-.32-2.92-.88-3.56-2.61a4.2,4.2,0,0,1-.2-2.7c.08-.28-.58-.6,0-1C196.8,312,197.22,310.89,198.41,310.8Z"/><path class="cls-31" d="M195.92,323c2.92,2.54,6.47,2.83,10.2.82a.28.28,0,0,1,.41,0,6.18,6.18,0,0,1-3.74,1.59,7.91,7.91,0,0,1-5.59-1,2.12,2.12,0,0,0-.88-.19c-.63-.12-.84-.64-1-1.16s.16-.62.56-.67C196.09,322.61,195.7,322.83,195.92,323Z"/><path class="cls-32" d="M159.88,320.19h.44c1.05.91,2.15,1.71,3.66,1.19.69-.24,1.1-1,1.93-1,.67,0,1.19,0,1.33.78a1,1,0,0,0,.65.82,1.31,1.31,0,0,1,.65,1.54c-.08.43-.45.58-.88.35.47-.74.09-1.31-.38-1.85l-.37-.47c-.53-.68-.94-1-1.81-.23C163.77,322.43,160.69,321.91,159.88,320.19Z"/><path class="cls-23" d="M174.64,303c.33.3.19.7.19,1.06q0,9.54,0,19.1a5.78,5.78,0,0,1-.21,1.5c-.67-.19-.51-.77-.3-1.05a2.17,2.17,0,0,0,.29-1.45Q174.65,312.58,174.64,303Z"/><path class="cls-20" d="M85.05,310.34c.41-.74,1.1-.35,1.65-.35.76,0,1.08-.18,1.06-1,0-1.41.09-2.82.11-4.22a.71.71,0,0,1,.2-.54c.07-.07.17-.15.19-.24.13-.54-.66.29-.48-.31.11-.35.49-.14.7-.27a5.36,5.36,0,0,0,.69-.57.61.61,0,0,1,.27.62,9.71,9.71,0,0,0-1,4.92c.06,2.29-1.09,3-3.32,2Z"/><path class="cls-33" d="M102,312a5,5,0,0,0-.53,4c.5,1.49,1.76,2.07,3.13,2.48l1.36.41c-1.24.4-3.69-.84-4.32-1.83a3.59,3.59,0,0,1-.58-2.67c.13-.71-.51-1.29-.1-2.09a1.25,1.25,0,0,1,.9-.72C102,311.68,102,311.86,102,312Z"/><path class="cls-34" d="M292.84,323.82c.92.22,1.68.84,2.62,1a8.18,8.18,0,0,0,4.7-.15c.16-.18.39-.13.59-.17a.41.41,0,0,1,.26.17.75.75,0,0,1-.66.39c-.12,0-.32,0-.06.18a1.86,1.86,0,0,0,.32.08,13,13,0,0,1-7.28-.86C292.94,324.33,292.58,324.37,292.84,323.82Z"/><path class="cls-26" d="M269.52,324.88l0-14.1c0,.41.86-.42.49.26-.54,1-.26,2-.29,3-.1,2.88,0,5.76,0,8.63,0,.33.12.66.15,1S270.07,324.59,269.52,324.88Z"/><path class="cls-35" d="M102,312l-.14-.39c.26-.16.49-.31.52-.68a.66.66,0,0,1,.7-.6c.77.15,1.36-.33,2-.5a9.43,9.43,0,0,1,5,.34l0,.26a.69.69,0,0,1-.67.11,7.47,7.47,0,0,0-5.5.21C103,310.9,102.59,311.55,102,312Z"/><path class="cls-36" d="M203.29,313.18c.19.06.46.06.55.19.85,1.12,1.5.56,2.24-.15,1.26-1.2,1.28-1.35-.23-2.27l-.95-.57c1.3-.3,1.8,1,2.75,1.44.28.12-.23.77-.58,1a6,6,0,0,0-1.16,1C205,314.87,203.83,314.57,203.29,313.18Z"/><path class="cls-37" d="M301,324.7l-.24,0c0-.39.33-.23.48-.37a7.67,7.67,0,0,0,2-1.42c.42-.39.55-.7-.05-1.1a5,5,0,0,1-1.41-1.15,3.53,3.53,0,0,1,2.51,1.81c0,.1.05.17-.06.23C303.08,323.25,302.46,324.62,301,324.7Z"/><path class="cls-38" d="M293.68,318.78c.25-.43.67-.23,1-.23,2.74,0,5.49-.05,8.23,0,1,0,1.54-.18,1.35-1.3a3.67,3.67,0,0,1,0-.81,1.36,1.36,0,0,1,.11.28c.32,2,.27,2.1-1.77,2.1Z"/><path class="cls-39" d="M290,316.12a7.48,7.48,0,0,0,1.15,5.7c.18.06.17.19.13.34l-.1.09c-.68-.19-.58-.88-.88-1.32-1-1.47-.68-3.1-.73-4.7a.85.85,0,0,1,.37-.78l.12.09A.48.48,0,0,1,290,316.12Z"/><path class="cls-23" d="M165.64,314.86c.4,0,.82,0,1.05-.36.42-.68.38.18.59.16a3.69,3.69,0,0,1-2.2,1.52c-.81.33-.66-.05-.67-.5h0C164.8,315.38,165.42,315.42,165.64,314.86Z"/><path class="cls-40" d="M128.44,311a2.73,2.73,0,0,0-.05.4c0,2.09,0,2.08-2.18,2.08-.43,0-.88-.11-1.25.21.05-.67.57-.44.92-.45,2.19,0,2.19,0,2.14-2.21,0-.07,0-.14,0-.21-.79-.37-1.65.08-2.44-.23v-.2c.74,0,1.48,0,2.22-.07C128.32,310.26,128.39,310.59,128.44,311Z"/><path class="cls-41" d="M39.69,318.52l.79,0c-.21.56-.69.31-1,.31-3.26,0-6.52,0-9.77,0,0-.59.5-.26.72-.26C33.49,318.53,36.59,318.53,39.69,318.52Z"/><path class="cls-42" d="M95.72,301.58l0,.26a1.17,1.17,0,0,1-.87.22,20.74,20.74,0,0,0-4.16.28.47.47,0,0,1-.28-.2,2.09,2.09,0,0,1,1.59-.68A10.63,10.63,0,0,1,95.72,301.58Z"/><path class="cls-23" d="M179.14,302.39c-.12-.6-.41-.81-1.08-.66a3.76,3.76,0,0,1-1.7-.05,1.68,1.68,0,0,0-1.72.51c0-.51.05-.85.69-.83,1,0,2.1,0,3.14,0C179.14,301.4,179.53,301.65,179.14,302.39Z"/><path class="cls-26" d="M255.81,311.59a58.33,58.33,0,0,1,.19,7.12c0,.35.14.75-.19,1.06-.1-2.37.21-4.76-.19-7.12C255.57,312.31,255.47,311.89,255.81,311.59Z"/><path class="cls-39" d="M292,312a8.38,8.38,0,0,0-1.66,2.8c-.24.17.08.63-.37.68l-.08-.06a4.2,4.2,0,0,1,1.46-3.24A.72.72,0,0,1,292,312Z"/><path class="cls-43" d="M195.92,323c-.37-.19-.06-.41,0-.61.54-.54,1.06-1.12,1.64-1.6.39-.32.9-.53,1.23.14-.05.13-.13.14-.21,0s-.39-.24-.62,0A11.94,11.94,0,0,0,195.92,323Z"/><path class="cls-26" d="M264.39,325.58h3.34v.25A7.39,7.39,0,0,1,264.39,325.58Z"/><path class="cls-44" d="M128.8,304.8c-.38.51-.91.19-1.37.24s-1.06-.06-1.45.42a.68.68,0,0,0-.42.7c0,.29-.07.51-.42.52a.55.55,0,0,1,0-.81,2.35,2.35,0,0,1,2.61-1.11A8.44,8.44,0,0,0,128.8,304.8Z"/><path class="cls-40" d="M125.18,305.87l0,.81a9.85,9.85,0,0,0,0,3.67c-.37.21-.42-.1-.42-.31,0-1.24,0-2.48,0-3.72A.4.4,0,0,1,125.18,305.87Z"/><path class="cls-39" d="M294.73,310.4l-.5.36a.76.76,0,0,0-.6.31L292,312c0-.09-.12-.25-.09-.27C292.78,311.12,293.47,310.18,294.73,310.4Z"/><path class="cls-45" d="M207.36,318.92a4.18,4.18,0,0,1-.2,3.71l-.1.2c-.43-.59.25-1,.27-1.47C207.37,320.55,207.35,319.73,207.36,318.92Z"/><path class="cls-16" d="M264,320.58a1.59,1.59,0,0,0-1.23.34.34.34,0,0,1-.56-.19c-.06-.25.22-.46.33-.41.48.18,1.12-.55,1.46.27Z"/><path class="cls-46" d="M167.28,322c1.18,1,1.18,1,.38,1.85l-.38.07C167.88,323.27,167.44,322.63,167.28,322Z"/><path class="cls-24" d="M278.38,302.19h1.21c-.29.33-.61.11-.87.28.16.27.59,0,.71.39-.33.27-.75.09-1.11.15A.81.81,0,0,1,278.38,302.19Z"/><path class="cls-21" d="M155.42,321.81a2.5,2.5,0,0,1-.14,1.13c-.35-.15-.67-.33-.64-.75s.47-.33.78-.38Z"/><path class="cls-12" d="M25,316.5c-.77-.29-.31-.91-.37-1.38,0-.15.17-.21.3-.16s.33,0,.27.31-.14.82-.2,1.23Z"/><path class="cls-10" d="M227.8,325.49c-.1,0-.22,0-.28.09-.23.2-.5.49-.76.2s.2-.42.34-.61.28-.28.29-.5c.72-.18.58.28.52.69Z"/><path class="cls-34" d="M291.6,322.45c.19.46.83.6.87,1.17-.71-.19-1.31-.49-1.31-1.37l0-.05C291.44,322.12,291.49,322.32,291.6,322.45Z"/><path class="cls-27" d="M95.3,313.64c0-1.09,0-2.18,0-3.27.57.57.12,1.27.15,1.89C95.49,312.69,95.92,313.26,95.3,313.64Z"/><path class="cls-12" d="M25.58,313.64c-.32.19-.11.56-.33.83.3-.63-.88-.6-.49-1.15a.48.48,0,0,1,.82.32Z"/><path class="cls-47" d="M203.65,320.18l-.17-.45c1,.78.87,1.54-.24,2.25C203.36,321.38,204.21,320.94,203.65,320.18Z"/><path class="cls-11" d="M235.26,300.32c.38-.16.74-.32,1,0s-.15.37-.29.45C235.45,301.05,235.52,300.44,235.26,300.32Z"/><path class="cls-25" d="M118.2,310.16c0,1,0,2,0,3.07A5,5,0,0,1,118.2,310.16Z"/><path class="cls-48" d="M104.69,321.83c-.63-.14-1-.65-1.41-1-.12-.08-.11-.15,0-.21A2.34,2.34,0,0,1,104.69,321.83Z"/><path class="cls-49" d="M36.4,321.19c-.36.3-.66.68-1.2.64.14-.66.73-.66,1.2-.84.06.05.08.09.06.13S36.42,321.19,36.4,321.19Z"/><path class="cls-23" d="M167.28,314.66v-.82c.63-.17.34.7.81.82Z"/><path class="cls-50" d="M314.51,182.8c-.38,0-.79,0-1,.43a1.11,1.11,0,0,1,0-.82C313.91,182.44,314.37,182.22,314.51,182.8Z"/><path class="cls-26" d="M263.38,325.9h1.22C264.19,326.53,263.78,326.53,263.38,325.9Z"/><path class="cls-51" d="M36.4,321.19V321l.29-.36c.3.16.6-.62.91,0C37.15,320.7,36.92,321.25,36.4,321.19Z"/><path class="cls-10" d="M229,325.49c-.41.64-.82.63-1.23,0A1,1,0,0,1,229,325.49Z"/><path class="cls-18" d="M72.19,326.18a1.42,1.42,0,0,1-1.42-.15A1.39,1.39,0,0,1,72.19,326.18Z"/><path class="cls-52" d="M301.33,156.2c-.66-.45-.23-1.11-.32-1.67A3.83,3.83,0,0,1,301.33,156.2Z"/><path class="cls-53" d="M107.32,322.4c-.49.47-1,.18-1.57.15,0,0,0-.06,0-.08a.16.16,0,0,1,.07-.07Z"/><path class="cls-54" d="M314.5,128.46c-.06.61-.77.26-1,.66l0-.46A1.61,1.61,0,0,1,314.5,128.46Z"/><path class="cls-55" d="M301,168c.11-.49-.35-1.08.3-1.46A3.19,3.19,0,0,1,301,168Z"/><path class="cls-56" d="M206.53,323.86h-.41c.31-.22.32-.77.84-.77C207,323.42,206.64,323.58,206.53,323.86Z"/><path class="cls-23" d="M189.36,312c0,.07-.09.23-.18.26s-.2-.12-.21-.25,0-.29.15-.32S189.31,311.84,189.36,312Z"/><path class="cls-57" d="M198.56,321l.21,0,.83.85C199.08,321.75,198.82,321.36,198.56,321Z"/><path class="cls-23" d="M164.62,314.05c.3.16.66.24.81.61C164.91,314.79,164.69,314.51,164.62,314.05Z"/><path class="cls-23" d="M164.41,315.68c-.33,0-.44-.23-.36-.53,0-.07.15-.17.18-.15.31.15.13.45.18.68Z"/><path class="cls-23" d="M190.16,316.08c0,.13,0,.29-.19.29s-.18-.16-.19-.29,0-.29.19-.29S190.15,316,190.16,316.08Z"/><path class="cls-58" d="M202.4,322.39a1.21,1.21,0,0,1-1.55,0Z"/><path class="cls-59" d="M103.29,320.58v.21c-.39.14-.56.61-1,.66A1.3,1.3,0,0,1,103.29,320.58Z"/><path class="cls-25" d="M121.06,308.32c-.08.54.21,1.13-.2,1.63C121,309.41,120.66,308.82,121.06,308.32Z"/><path class="cls-60" d="M300.88,153.59c-.32-.15-.32-.15-.27-1.07A1.51,1.51,0,0,1,300.88,153.59Z"/><path class="cls-61" d="M31.15,321.6a.85.85,0,0,1-.87-.83Z"/><path class="cls-62" d="M18,321.38a2.6,2.6,0,0,1,.43-1C18.44,320.77,18.53,321.21,18,321.38Z"/><path class="cls-23" d="M188.54,313.23c-.55-.07-.37-.5-.41-.82A1.09,1.09,0,0,1,188.54,313.23Z"/><path class="cls-63" d="M160.68,324.69h1c.17,0,.1.11,0,.17a.53.53,0,0,1-.19.06A.91.91,0,0,1,160.68,324.69Z"/><path class="cls-27" d="M94.69,313.66l.61,0C95.12,314.27,94.9,314,94.69,313.66Z"/><path class="cls-64" d="M14.74,313.65c-.29,0-.69.12-.41-.42h.42C14.75,313.37,14.75,313.51,14.74,313.65Z"/><path class="cls-25" d="M121.06,307.7v.42c-.21,0-.42-.09-.37-.34S120.92,307.68,121.06,307.7Z"/><path class="cls-25" d="M121.06,306.69v.61C120.75,307.1,120.42,306.89,121.06,306.69Z"/><path class="cls-65" d="M74.07,319.79a.83.83,0,0,1-.42.83A.84.84,0,0,1,74.07,319.79Z"/><path class="cls-32" d="M165.79,320.19l-.21-.16c.06-.06.12-.16.19-.18s.13.08.19.12Z"/><path class="cls-42" d="M89.32,303.21l-.15-.4.58-.25.08.11A.52.52,0,0,1,89.32,303.21Z"/><path class="cls-66" d="M298.93,174.63a.93.93,0,0,1,.4-.85A.78.78,0,0,1,298.93,174.63Z"/><path class="cls-42" d="M89.75,302.56c.19-.17.19-.59.61-.42l.07.09c0,.38-.22.54-.61.42Z"/><path class="cls-1" d="M147.27,170.13c0-6,0-12.06,0-18.08,0-.52-.11-1,.73-1,6,.13,12.06-.23,18.08.27a29.81,29.81,0,0,1,12.52,3.36,15.78,15.78,0,0,1,8.09,12.09,21.67,21.67,0,0,1-.4,9.41c-1.34,4.66-4.45,7.78-8.73,9.82A36,36,0,0,1,164,189.13c-5.3.32-10.62.11-15.93.18-.73,0-.82-.28-.81-.9Q147.28,179.27,147.27,170.13Z"/><path class="cls-1" d="M239.4,219.92c0-6,0-12,0-18,0-.84.22-1.08,1.07-1.07,5.49.1,11-.15,16.45.18A34.33,34.33,0,0,1,269,203.66c6,2.64,9.1,7.32,9.9,13.69a20.38,20.38,0,0,1-.87,9.77c-1.8,4.81-5.48,7.67-10.11,9.46A41.11,41.11,0,0,1,253.61,239c-4.43.07-8.85,0-13.28,0-.78,0-1-.19-.94-1,0-6.06,0-12.12,0-18.18Z"/><path class="cls-67" d="M147.26,115.1c0-5.07,0-10.15,0-15.22,0-.76.13-1.06,1-1,5.14.09,10.29-.13,15.42.19a33.82,33.82,0,0,1,9.71,1.76c6.17,2.29,9.3,6.6,9.64,13.17.27,5.34-1.26,9.87-5.82,13.05a21.7,21.7,0,0,1-7.18,3.08,43.72,43.72,0,0,1-10.12,1.23c-3.88,0-7.77,0-11.65,0-.84,0-1-.26-1-1C147.28,125.25,147.26,120.17,147.26,115.1Z"/><path class="cls-1" d="M239.4,164.9c0-5.08,0-10.15,0-15.22,0-.88.25-1.06,1.08-1.05,5.48.09,11-.14,16.44.27a28.76,28.76,0,0,1,10.56,2.51c4.72,2.3,7,6.22,7.55,11.33a15.64,15.64,0,0,1-1.77,9.87c-2.24,3.78-5.82,5.7-9.86,6.92a43.37,43.37,0,0,1-12.1,1.62c-3.64,0-7.29,0-10.93,0-.77,0-1-.19-1-1C239.42,175.11,239.4,170,239.4,164.9Z"/><path class="cls-68" d="M293.67,164.78c.39.35.27.85.39,1.28a.57.57,0,0,1,0,.82C293.21,166.3,293.8,165.48,293.67,164.78Z"/><path class="cls-69" d="M294,154a2.32,2.32,0,0,1-.37,1.86C293.63,155.21,293.5,154.53,294,154Z"/><path class="cls-70" d="M294,166.88l0-.82c.78.4.26,1.1.39,1.66-.53,0-.15-.5-.38-.67A.22.22,0,0,0,294,166.88Z"/><path class="cls-71" d="M294.07,167.05l.38.67v.8C293.73,168.19,294.14,167.56,294.07,167.05Z"/><path class="cls-72" d="M295.23,149.65c.06.42.13.85-.37,1.08C294.9,150.34,294.69,149.87,295.23,149.65Z"/><path class="cls-73" d="M295.66,171.8c.6.06.39.51.4.85a.23.23,0,0,1-.35-.08Z"/><path class="cls-74" d="M294.49,168.49c.53.13.34.54.33.88C294.36,169.21,294.46,168.84,294.49,168.49Z"/><path class="cls-75" d="M295.71,172.57l.35.08c0,.25,0,.51.05.76A.87.87,0,0,1,295.71,172.57Z"/><path class="cls-1" d="M340,191.27c0-3.13,0-6.25,0-9.38,0-3.49,0-7,.06-10.46,0-.39-.16-.82.21-1.15a11.16,11.16,0,0,1,1.53,0c4.57.13,9.13-.22,13.71-.19.5,0,1,0,1.52,0a9.56,9.56,0,0,0,1.59.25,1.49,1.49,0,0,1,.3.18A37.94,37.94,0,0,1,369,172.8c6.21,2.55,9.64,7.19,10.5,13.79a20.44,20.44,0,0,1-.85,10c-1.84,4.9-5.61,7.74-10.32,9.52a40.08,40.08,0,0,1-13.41,2.33c-4.67.09-9.33,0-14,.11-.82,0-.93-.3-.93-1C340,202.1,340,196.69,340,191.27Z"/><path class="cls-1" d="M340,138.25V129c0-3.3.05-6.6,0-9.9,0-.79.2-1,1-1,5.24.09,10.48-.16,15.72.21a32,32,0,0,1,10.54,2.19c5,2.17,7.72,6,8.34,11.42a16.09,16.09,0,0,1-1.41,9.54c-2,3.77-5.29,5.83-9.15,7.19a51.47,51.47,0,0,1-6.23,1.53c-1.46.63-3,.48-4.56.67a20.54,20.54,0,0,1-2.22,0,5,5,0,0,1-1.77-.19c-3.09,0-6.19-.06-9.28,0-.82,0-1-.24-1-1C340,145.8,340,142,340,138.25Z"/><path class="cls-7" d="M351.93,150.59l6.87-.46.28,1c.28.38.1.88.38,1.25a46.56,46.56,0,0,1,.87,8.24,39.16,39.16,0,0,1-1.29,8.7c-.19.9-.74,1.11-1.62,1-2.08-.21-4.18-.07-6.27-.08-.74,0-1-.24-.7-1,.24-1.23.74-2.37,1-3.6a23.32,23.32,0,0,0,.39-8.69,22.4,22.4,0,0,0-.94-4.43,2,2,0,0,1-.2-.87c-.07-.77.31-1.06,1-.93a16.43,16.43,0,0,0,2.41.06C353.46,150.67,352.65,151.12,351.93,150.59Z"/><path class="cls-76" d="M350.45,169.29c-.05.62.16.9.86.88,2.17,0,4.34-.09,6.5,0,.83,0,.73-.74,1.23-.89.12.43-.14.8-.18,1.21l-.28,0c-.44-.12-.92.07-1.35-.11l-17-.1c2.63-.21,5.27,0,7.9-.09C349,170.17,350,170.42,350.45,169.29Z"/><path class="cls-77" d="M319,193.05c.68.18,1.52-.47,2.06.41A3.36,3.36,0,0,1,319,193.05Z"/><path class="cls-78" d="M331.67,193.46c.56-.88,1.4-.25,2.1-.39A3.64,3.64,0,0,1,331.67,193.46Z"/><path class="cls-79" d="M359.46,152.38c-.51-.3-.39-.79-.38-1.25C359.58,151.44,359.48,151.92,359.46,152.38Z"/><path class="cls-80" d="M333.52,127.2c-.38,0-.87.26-1-.36h.61C333.21,127,333.58,126.83,333.52,127.2Z"/><path class="cls-81" d="M333.52,127.2l-.43-.36c.37,0,.85-.23,1.05.35Z"/><path class="cls-82" d="M337.37,192.19c.12-.5.53-.34.85-.35A.69.69,0,0,1,337.37,192.19Z"/><path class="cls-83" d="M351.93,150.59c.77.32,1.59,0,2.38.35-.86,0-1.72,0-2.58,0-.68-.05-.92.24-.87.87-.14.08-.27.08-.35-.09a1.9,1.9,0,0,0-.26-1.09A5.57,5.57,0,0,1,351.93,150.59Z"/><path class="cls-84" d="M321,135c.12-.62.62-.39,1-.41s1,0,1.52,0A5.34,5.34,0,0,1,321,135Z"/><path class="cls-85" d="M321.09,185.24c-.45-.07-1,.35-1.28-.38C320.26,184.9,320.79,184.68,321.09,185.24Z"/><path class="cls-86" d="M318.21,184.44c-.43-.09-1.06.38-1.24-.44A1.58,1.58,0,0,1,318.21,184.44Z"/><path class="cls-87" d="M317,136.26c.18-.8.81-.33,1.23-.44A1.59,1.59,0,0,1,317,136.26Z"/><path class="cls-88" d="M335.75,184c-.07.58-.5.42-.85.41,0-.22.13-.28.26-.37Z"/><path class="cls-89" d="M335.16,184.06l-.26.37-.78,0A1.11,1.11,0,0,1,335.16,184.06Z"/><path class="cls-90" d="M336.58,136.63c.33,0,.73-.12.82.39C337.05,137.06,336.73,137,336.58,136.63Z"/><path class="cls-91" d="M350.51,151.71l.35.09,0,.77A.91.91,0,0,1,350.51,151.71Z"/><path class="cls-92" d="M314,130.23v6.25a32.59,32.59,0,0,1-.29-6.24Z"/><path class="cls-93" d="M13.48,310.91c-1.2,1.19-2.72,1.23-4.27,1.23-2.62,0-2.63,0-2.61-2.56,0-.91-.39-2.09.16-2.65s1.8-.16,2.74-.2a8,8,0,0,1,1.62.09c2.39.37,3.18,1.67,2.42,4C13.61,310.87,13.59,310.91,13.48,310.91Z"/><path class="cls-94" d="M6.6,321.41l-.06-4.91a.62.62,0,0,1,0-.82c.08-.16.18-.32.37-.32a21.24,21.24,0,0,1,6.06.37,4.08,4.08,0,0,1,.73.35,2.08,2.08,0,0,1,1,1.67c.19,1.91-.51,3.3-3.24,3.75A16,16,0,0,1,6.6,321.41Z"/><path class="cls-95" d="M2.88,323.05c0-2.89,0-5.78,0-8.67,0-3.51,0-7,0-10.51a.53.53,0,0,1,.82,0,3,3,0,0,0-.42,1.71c0,5.83,0,11.66,0,17.5h0A.29.29,0,0,1,2.88,323.05Z"/><path class="cls-7" d="M14.73,313.83c-1,.92-1.36-.5-2.18-.24a7.42,7.42,0,0,1-2.16.05c-.07-.51.4-.44.48-.86H7.11a2.89,2.89,0,0,1,2.11-.35,15,15,0,0,0,3.21,0c.49-.07,1-.11,1.08.7C13.55,313.52,14,314,14.73,313.83Z"/><path class="cls-96" d="M3.7,303.83l-.82,0,.05-.26c3.05-.13,6.11-.12,9.16,0a2,2,0,0,1,1.24.22Z"/><path class="cls-7" d="M14.92,311.91c.2-1.05,1.39-1,1.73-1.84C16.87,311.32,16,312.2,14.92,311.91Z"/><path class="cls-7" d="M13.51,315.27h-1.2a.37.37,0,0,1-.4-.45.34.34,0,0,1,.41-.34c.51.08,1.41-.38,1.2.8Z"/><path class="cls-7" d="M13.48,310.91a.1.1,0,0,1,.06-.13c.32.34.89.48.83,1.15-.16,0-.35.06-.53.12a.59.59,0,0,1-.71-.2c-.25-.36.33-.21.33-.45S13.47,311.07,13.48,310.91Z"/><path class="cls-7" d="M14.33,313.23c-.44-.05-.46-.37-.39-.67.15-.61.72,0,1-.47a1.26,1.26,0,0,1-.61,1.13Z"/><path class="cls-97" d="M14.73,317.75a5.19,5.19,0,0,0-1-1.67l.21-.05A1.58,1.58,0,0,1,14.73,317.75Z"/><path class="cls-98" d="M6.56,315.68l0,.82H6.15a.29.29,0,0,1,0-.41v-.41Z"/><path class="cls-99" d="M65.36,312.55v7.07h-.2v-7.07Z"/><path class="cls-99" d="M66,310.53c.19.9.94.5,1.45.85-.75.45-1.62-.07-2.23.5-.06-.07-.16-.13-.17-.21s0-.44.17-.39C65.81,311.42,65.93,311.07,66,310.53Z"/><path class="cls-100" d="M74.9,324.69c-.61-.6-.22-1.34-.3-2C75.14,323.28,74.7,324,74.9,324.69Z"/><path class="cls-101" d="M69.08,325a1.55,1.55,0,0,1-1.19-.33C68.3,324.75,68.82,324.43,69.08,325Z"/><path class="cls-102" d="M294.72,313.46a4.75,4.75,0,0,1,4.43-.41,3.56,3.56,0,0,1,1.59,2.26c.12.6-.05.82-.65.79s-1,0-1.53,0a27.58,27.58,0,0,1-4.72.12c-.36,0-.5-.21-.47-.61a2,2,0,0,1,.83-1.64Z"/><path class="cls-103" d="M294.2,314c-1.09,2-1.05,2.07,1.24,2.08,1,0,2.08,0,3.12,0,0,.12.47.32,0,.33-1.59,0-3.19,0-4.79,0-.6,0-.81-1.4-.33-2A.88.88,0,0,1,294.2,314Z"/><path class="cls-104" d="M290,315.51l.37-.68c-.17.42.43,1.06-.39,1.29Z"/><path class="cls-105" d="M301.25,324.29l-.48.37-.61,0A1.07,1.07,0,0,1,301.25,324.29Z"/><path class="cls-103" d="M299.48,316.44c.26-.23.48-.11.88-.16A.92.92,0,0,1,299.48,316.44Z"/><path class="cls-106" d="M291.6,322.45l-.39-.25c0-.13,0-.26-.08-.38C291.55,321.83,291.61,322.11,291.6,322.45Z"/><path class="cls-107" d="M29.47,316.5a3,3,0,0,0,1.71.42c2.39,0,4.77,0,7.15,0,.9,0,1.58,0,1.37-1.21,0-.11,0-.27.36-.32-.14.94.48,1.89-.37,2.74.1-.71-.28-.83-.9-.83-2.81,0-5.62,0-8.43,0C29.75,317.33,29.36,317.22,29.47,316.5Z"/><path class="cls-108" d="M39.26,323c-.21.3-.22.84-.82.64C38.68,323.38,38.87,323.07,39.26,323Z"/><path class="cls-109" d="M31.09,324.64a1.16,1.16,0,0,1-.88-.35C30.54,324.31,31,324.06,31.09,324.64Z"/><path class="cls-110" d="M121.47,323q0-4.69,0-9.39c.07-.1.14-.3.2-.3.23,0,.22.22.22.38v2.44c0,2,0,4,0,6C121.88,322.5,122,323,121.47,323Z"/><path class="cls-111" d="M121,313.36a3.64,3.64,0,0,1-.8.06c-.6-.09-1.58.35-1.74-.25a3.44,3.44,0,0,1,.13-2.77c0,.65,0,1.3,0,1.94s.23,1,.93.92A2.78,2.78,0,0,1,121,313.36Z"/><path class="cls-112" d="M125.57,310.57l2.45.06s0,.06,0,.08a.32.32,0,0,1,0,.09C127.2,310.64,126.35,311,125.57,310.57Z"/><path class="cls-113" d="M121.51,305.48c.11-.24.23-.47.34-.7,0,.3.3.72-.26.88A1.42,1.42,0,0,1,121.51,305.48Z"/><path class="cls-114" d="M103.83,310.74a7,7,0,0,1,5.09-.57c.36.07.72.16,1.08.25l.42.36a7.33,7.33,0,0,1-2.06-.33,4.66,4.66,0,0,0-3.34.17A1.79,1.79,0,0,1,103.83,310.74Z"/><path class="cls-115" d="M109,316.47a3.77,3.77,0,0,1,2.51,1.23c-.64.09-1.3.36-1.59-.6C109.83,316.76,109.12,317,109,316.47Z"/><path class="cls-116" d="M101.42,323.66a.75.75,0,0,1-.72-.74c0-.42.3-.63.7-.72A1,1,0,0,0,101.42,323.66Z"/><path class="cls-116" d="M102.66,324.67c-.18-.35-.77-.27-.83-.76a3.84,3.84,0,0,1,1.31.73l-.48,0Z"/><path class="cls-117" d="M160.87,310.35a6.1,6.1,0,0,1,4.43,0Z"/><path class="cls-118" d="M159.11,316.09a10.55,10.55,0,0,0-.19,2c0,.19,0,.39-.06.68C158.52,317.47,158.62,316.52,159.11,316.09Z"/><path class="cls-119" d="M156.65,321.83a2.71,2.71,0,0,1-.84-1.67A2.42,2.42,0,0,1,156.65,321.83Z"/><path class="cls-120" d="M155.45,316.49a2.17,2.17,0,0,1,.36-1.46C155.73,315.53,156.13,316.14,155.45,316.49Z"/><path class="cls-5" d="M224.5,310.38a5,5,0,0,1,2.55,1.36c.3.27.39.51,0,.83-.6.53-1.17,1.1-1.75,1.66-.4.26-.69,0-1-.2a3.79,3.79,0,0,0-5.29.65,4.57,4.57,0,0,0,.06,5.82,4,4,0,0,0,5.52.48c.36-.29.58-.35.9,0a18,18,0,0,0,1.46,1.56c.52.48.33.79-.16,1.09a7.94,7.94,0,0,1-7.19,1,13.75,13.75,0,0,0-1.74-.81c-2.92-1.58-4.25-5.47-3-8.93.09-.29.2-.57.3-.86a3.75,3.75,0,0,1,1.16-1.67,7.05,7.05,0,0,1,3.66-2A12,12,0,0,1,224.5,310.38Z"/><path class="cls-1" d="M229,325.49H227.8c0-.32.14-.75-.41-.82v-1.33a1.3,1.3,0,0,0,1.47,1c.1.52-.42.27-.53.55S229.1,325,229,325.49Z"/><path class="cls-121" d="M224.5,310.38l-4.54,0A6.24,6.24,0,0,1,224.5,310.38Z"/><path class="cls-1" d="M214,316.47c-.61-.55-.19-1,.18-1.49A1.22,1.22,0,0,1,214,316.47Z"/><path class="cls-122" d="M217.88,323.86a1.91,1.91,0,0,1,1.74.81A2.73,2.73,0,0,1,217.88,323.86Z"/><path class="cls-123" d="M216.3,312.4l-1.16,1.67A1.76,1.76,0,0,1,216.3,312.4Z"/><path class="cls-124" d="M224.32,314l1,.2C224.93,314.73,224.92,314.73,224.32,314Z"/><path class="cls-9" d="M145.45,311.15a2.2,2.2,0,0,1,1,1,2.09,2.09,0,0,0,.37.67.12.12,0,0,1,0,.13c.09.37.24.72.36,1.09.44,3,.13,5.95.2,8.93,0,1.74,0,1.75-1.75,1.75l-1.22,0c-.45-.35-.18-.89-.36-1.3s-.29,0-.4.12a.83.83,0,0,1-.41.3,3.19,3.19,0,0,1-1.66.87c-.3.17-.7,0-1,.26-2.62.59-5.36-.57-6.15-2.59a4.2,4.2,0,0,1,1.44-5.06,2,2,0,0,0,.67-.38h0c.32-.21.74-.17,1-.43a16.36,16.36,0,0,1,5.52-.73c1.08,0,1.21-.2.85-1.26a2.47,2.47,0,0,0-2-1.67,5.18,5.18,0,0,0-4.27.82c-.61.45-1,.36-1.43-.16-1.31-1.4-1.36-1.44.37-2.36a8.73,8.73,0,0,1,8.1-.39A1.21,1.21,0,0,0,145.45,311.15Z"/><path class="cls-1" d="M142.33,325.82c.66-.08.45-.56.69-.79s.21-.32.4-.2a.31.31,0,0,1,.07.45C143.26,325.59,143.06,326,142.33,325.82Z"/><path class="cls-125" d="M143.6,323.45c0-.39.21-.53.59-.45a3.12,3.12,0,0,1,0,1.66c-.29-.22-.15-.53-.19-.81S143.67,323.63,143.6,323.45Z"/><path class="cls-126" d="M144.16,324.66l0-1.65c.39.51.06,1.14.25,1.69Z"/><path class="cls-127" d="M140.65,325c0-.09-.44-.17,0-.26a3.72,3.72,0,0,1,1,0A1.15,1.15,0,0,1,140.65,325Z"/><path class="cls-128" d="M137.65,316.49a.94.94,0,0,1-1,.43A1.22,1.22,0,0,1,137.65,316.49Z"/><path class="cls-129" d="M147.21,314.05a1.18,1.18,0,0,1-.36-1.09A1.23,1.23,0,0,1,147.21,314.05Z"/><path class="cls-130" d="M143.6,323.45a.34.34,0,0,1,.37.4l-.7,0Z"/><path class="cls-129" d="M146.81,312.83c-.43-.05-.41-.36-.37-.67A.69.69,0,0,1,146.81,312.83Z"/><path class="cls-131" d="M145.45,311.15c-.35.07-.64,0-.67-.41A.77.77,0,0,1,145.45,311.15Z"/><path class="cls-128" d="M136.61,316.92c0,.44-.35.41-.67.38A.73.73,0,0,1,136.61,316.92Z"/><path class="cls-132" d="M6.6,321.41l4.89.09c.06.09.27.26.16.26-1.63,0-3.26,0-4.89,0C6.71,321.74,6.66,321.52,6.6,321.41Z"/><path class="cls-6" d="M2.88,323.05h.41c-.16.62.57,1,.41,1.63C2.06,324.83,3.08,323.63,2.88,323.05Z"/><path class="cls-6" d="M6.15,316.09v1.81C6.16,317.3,5.54,316.67,6.15,316.09Z"/><path class="cls-6" d="M5.75,319.77c0-.31-.09-.65.31-.94.1.44.27.81-.31.94Z"/><path class="cls-8" d="M243.79,316.49c0-.26-.08-.53-.13-.8-.33-1.69-1.08-2.43-2.5-2.46a2.93,2.93,0,0,0-3.17,2.39,7.7,7.7,0,0,0-.15,2c0,2.08,0,4.15,0,6.23,0,.65-.19.87-.87.88-2.77,0-2.77.06-2.77-2.73,0-6.3,0-12.59,0-18.89,0-.9.23-1.17,1.14-1.15,2.51.05,2.51,0,2.51,2.51v6.44c0,.32,0,.64,0,1.1.82-.71,1.37-1.54,2.39-1.67a8.75,8.75,0,0,1,3.91,0,3.91,3.91,0,0,1,2.87,3.84,2.5,2.5,0,0,1,.17,1.09c0,2.78,0,5.56,0,8.34,0,.36.08.76-.26,1a13.3,13.3,0,0,1-2.75,0c-.39-.3-.25-.74-.25-1.13,0-2,0-4,0-6A1.63,1.63,0,0,0,243.79,316.49Z"/><path class="cls-133" d="M247,324.68l.06-9.36c0-.37,0-.74,0-1.11.45.25.33.71.33,1.08,0,2.9,0,5.81,0,8.71C247.39,324.28,247.57,324.75,247,324.68Z"/><path class="cls-134" d="M243.79,316.49c.35-.39.37-.16.37.19,0,2,0,4,0,6,0,.67,0,1.35.05,2-.51.1-.44-.27-.44-.57Q243.77,320.3,243.79,316.49Z"/><path class="cls-135" d="M244.18,310.37h-3.91A4.61,4.61,0,0,1,244.18,310.37Z"/><path class="cls-136" d="M278.6,322.89V303.56h.2v19.33Z"/><path class="cls-24" d="M278.42,323.64a1.21,1.21,0,0,1,1.3,0A1.12,1.12,0,0,1,278.42,323.64Z"/><path class="cls-1" d="M102.66,324.67l1.1.72c-.71.45-1-.48-1.55-.43,0-.27.26-.25.45-.29Z"/><path class="cls-1" d="M108.64,325.64c.44,0,.52-.85,1.12-.46.12.08.19.23.07.34C109.48,325.84,109.05,325.62,108.64,325.64Z"/><path class="cls-1" d="M113.46,321.47c.35.23.2.52.24.75a.53.53,0,0,1-.18-.05C113.22,322,113.27,321.77,113.46,321.47Z"/><path class="cls-1" d="M110.09,324.84c.3-.19.53-.24.7.06a.37.37,0,0,1,0,.18C110.61,325,110.32,325.19,110.09,324.84Z"/><path class="cls-1" d="M34.52,325.67a3.17,3.17,0,0,1,2,0A2.06,2.06,0,0,1,34.52,325.67Z"/><path class="cls-1" d="M36.33,309.35s-.11.13-.18.15a.22.22,0,0,1-.3-.17c0-.05-.17-.19,0-.19S36.23,309.12,36.33,309.35Z"/><path class="cls-8" d="M51.9,324.69c-.78,0-1.56,0-2.34.06s-.93-.22-.92-.93c0-3.67,0-7.35,0-11,0-2.45,0-2.46,2.45-2.45.27,0,.54,0,.81.05.41.43.16,1,.25,1.45s.28.61.59.12a3.23,3.23,0,0,1,2.07-1.59,5.58,5.58,0,0,1,2.84-.06,11.83,11.83,0,0,1,.1,2.59c0,.43-.27.43-.61.45-.75,0-1.53-.23-2.26.16a3.7,3.7,0,0,0-2.62,2.84c-.27,2.13,0,4.26-.13,6.38C52.12,323.38,52.39,324.09,51.9,324.69Z"/><path class="cls-137" d="M51.9,324.69c0-2.42,0-4.83.06-7.24,0-.39-.16-.84.32-1.1,0,2.53,0,5.06,0,7.59C52.28,324.22,52.49,324.67,51.9,324.69Z"/><path class="cls-138" d="M54.9,313.51c.55-.56,1.24-.24,1.85-.24s1-.14.94-.88,0-1.34-.06-2c-.06-.08-.05-.15,0-.19.46,1,.14,2.1.19,3.16,0,.36-.33.25-.54.21A9,9,0,0,0,54.9,313.51Z"/><path class="cls-139" d="M57.68,310.19c0,.06,0,.12,0,.19h-2.8A3.28,3.28,0,0,1,57.68,310.19Z"/><path class="cls-140" d="M52.76,312c0,.28-.1.45-.41.43s-.38-.24-.39-.49c0-.5,0-1,0-1.51.68.22.26.79.37,1.19S52.22,312.3,52.76,312Z"/><path class="cls-141" d="M179.56,311.2c.56-.23.94-.82,1.61-.83a8.85,8.85,0,0,1,3.9,0c1.25.2,1.9,1.18,2.62,2.06a15,15,0,0,1,.62,5.73c0,1.91,0,3.81,0,5.71,0,.65-.17.88-.86.89-2.75.05-2.75.08-2.75-2.64,0-1.49,0-3,0-4.49a10.16,10.16,0,0,0-.21-2.33,2.3,2.3,0,0,0-2-2c-1.21-.1-2.38,0-3.11,1.22a4.62,4.62,0,0,0-.65,2.43c0,2.34,0,4.69,0,7,0,.63-.19.85-.81.81-.81-.06-1.63-.05-2.45-.06a1.07,1.07,0,0,1-.16-1.19c.33-.31.55,0,.78.16a1.42,1.42,0,0,0,1.53.21c.53-.21.35-.76.36-1.18a25.72,25.72,0,0,0-.06-4.89,6.68,6.68,0,0,1,.72-4.39c.08-.17.22-.41-.05-.53s-.35.14-.44.32-.29.68-.74.44-.75-.72-.46-1.1c1.84-2.37.83-5.13,1.12-7.31,0,1,0,2.46,0,3.89,0,.34.13.88-.41.87s-.45-.53-.46-.88c0-1.36,0-2.73,0-4.09s-.1-1.6-1.62-1.92a.38.38,0,0,1-.24-.17c-.1-.35-.15-.8.3-.8a5.44,5.44,0,0,1,2.74.19c-.21.7-.75.23-1,.36a1.5,1.5,0,0,0,1-.09.26.26,0,0,1,.39,0V312A1.46,1.46,0,0,0,179.56,311.2Z"/><path class="cls-142" d="M178.71,302.61h-.39c-.72-.85-1.66-.27-2.49-.36-.48-.05-.34.46-.36.77a1.91,1.91,0,0,1,.31,1.35q0,8.86,0,17.73a1.93,1.93,0,0,1-.31,1.36c0,.41,0,.82,0,1.24-.52,0-.39-.37-.4-.64,0-7.08,0-14.16,0-21.25,0-.62.23-.85.84-.82s1.43,0,2.15,0C178.52,302,178.86,302.05,178.71,302.61Z"/><path class="cls-6" d="M12.09,303.59H2.93a5.18,5.18,0,0,1,2.18-.12A67.69,67.69,0,0,1,12.09,303.59Z"/><path class="cls-8" d="M265.56,323.39a6.46,6.46,0,0,1-3.74,1.72,5,5,0,0,1-5.35-3.31c-.52-3.56-.15-7.13-.26-10.7,0-.57.18-.75.75-.77,2.87-.09,2.87-.11,2.87,2.77,0,1.67,0,3.34,0,5a8,8,0,0,0,.16,1.62c.32,1.39,1,2,2.14,2.12a3,3,0,0,0,3.31-1.82,5.89,5.89,0,0,0,.37-2.2c0-2.27,0-4.55,0-6.83.12-.22.26-.39.54-.35.43.06-.16-.24.08-.24a11.3,11.3,0,0,1,2.6,0c-.08.39-.37.2-.64.27.87-.21.78.35.78.86v7.74c0,1.43,0,2.86,0,4.28a1.1,1.1,0,0,1-.54,1.11h-2.36c-.54-.44-.15-1.08-.36-1.59C265.7,323,265.79,323.43,265.56,323.39Z"/><path class="cls-143" d="M268.67,324.68a2.8,2.8,0,0,0,.44-1.7c0-3.56,0-7.12,0-10.67,0-1.48,0-1.48-1.45-1.6.45-.34,1,.07,1.41-.29.46.16.29.56.3.86q0,6.27,0,12.55C269.36,324.28,269.49,324.88,268.67,324.68Z"/><path class="cls-144" d="M265.56,323.39c.13-.27-.18-.81.47-.75a3.91,3.91,0,0,1,0,2l-.19.06C265.46,324.33,266.1,323.74,265.56,323.39Z"/><path class="cls-143" d="M266.46,310.4l.49.32c-.41.1-.82,0-1.11.27C265.73,310.45,265.9,310.22,266.46,310.4Z"/><path class="cls-145" d="M266,324.65v-2c.44.63.06,1.38.28,2.05Z"/><path class="cls-146" d="M33.21,316.09c-1,0-1.91,0-2.86,0-.57,0-.8-.12-.65-.75a3.4,3.4,0,0,1,3-2.61,3.55,3.55,0,0,1,3.92,1.9c.52,1.16.34,1.45-.9,1.45Z"/><path class="cls-147" d="M36.57,316.46H30.52v-.1h6.06Z"/><path class="cls-7" d="M89.82,302.65a1,1,0,0,0,.61-.42,11.62,11.62,0,0,1,5.24-.39,10.7,10.7,0,0,1-.09,2.4c0,.56-.3.67-.79.57a2.6,2.6,0,0,0-2,.21,3.12,3.12,0,0,0-.81.85c-.58,1.27-.31,2.62-.33,3.93,0,.52.4.54.8.55.85,0,1.7,0,2.54.06a.41.41,0,0,1,0,.11c0,.88.28,2-.11,2.59s-1.63.27-2.48.28-.79.41-.79,1c0,3.17,0,6.33,0,9.5,0,.64-.12.88-.82.89-2.74,0-2.74.05-2.74-2.66,0-2.56,0-5.11,0-7.66,0-.72-.14-1-1-1-2.09,0-2.09,0-2.08-2.09v-.92c.71,0,1.43-.07,2.14,0s.9-.21.89-.88a17.93,17.93,0,0,1,.17-3.87,6,6,0,0,1,1-2.39Z"/><path class="cls-1" d="M160.69,315.39l0,.7c-.09,0-.22,0-.26-.09C160.29,315.75,160.45,315.6,160.69,315.39Z"/><path class="cls-148" d="M92,305.87a.86.86,0,0,1,.81-.85A1.9,1.9,0,0,1,92,305.87Z"/><path class="cls-149" d="M185.07,310.36h-3.9A4.62,4.62,0,0,1,185.07,310.36Z"/><path class="cls-7" d="M357.23,170.38c.45,0,.92-.17,1.35.11A2.68,2.68,0,0,1,357.23,170.38Z"/><path class="cls-150" d="M7,318.36c0-2.68,0-2.64,2.69-2.7a19.23,19.23,0,0,1,3.31.44l.1,0a3.71,3.71,0,0,1,1.21,2.5c-.61,2.05-1,2.23-3.34,2.29-.64,0-1.35.29-2,.29-1.9,0-1.92,0-1.92-1.92Z"/><path class="cls-151" d="M143.14,321.38a4,4,0,0,1-4.15.78,1.7,1.7,0,0,1,0-3.23,10.31,10.31,0,0,1,4.4-.6c.43,0,.61.2.58.62a2.82,2.82,0,0,1-.36,1.66C143.36,320.8,143.4,321.19,143.14,321.38Z"/><path class="cls-152" d="M143.14,321.38a.83.83,0,0,1,.47-.77A.76.76,0,0,1,143.14,321.38Z"/><path class="cls-153" d="M240,313a2.1,2.1,0,0,1,1.43,0Z"/><path class="cls-154" d="M49.27,323.79a1.53,1.53,0,0,1-.17-1.06c0-3.06,0-6.13,0-9.19,0-.21,0-.41,0-.62s0-.51.38-.46.54.36.34.6c-.53.6-.3,1.3-.31,1.95,0,2.59,0,5.17,0,7.76C49.49,323.09,49.63,323.44,49.27,323.79Z"/><path class="cls-7" d="M175.47,323.45V303a1.36,1.36,0,0,1,2,1.27c0,1.53,0,3.07,0,4.6a1.14,1.14,0,0,0,.36,1.13v-6.5c.59.13.44.47.44.7q0,3.06,0,6.13a2.62,2.62,0,0,1-.85,1.87c-.6.62-.35,1,.24,1.32.41-.3-.13-1.28.86-1.08.6.12.9.4.48.94A12.14,12.14,0,0,0,178,316c-.22.47.38.92.35,1.51-.07,1.91,0,3.82,0,5.72,0,.39.26,1.07-.43,1s-1.58.57-2-.48A.44.44,0,0,0,175.47,323.45Z"/><path class="cls-155" d="M182.59,313h-1.15l0-.09h1.13Z"/><path class="cls-7" d="M178.32,302.6c-.44.37-.93.15-1.41,0Z"/></svg>