<svg
      xmlns="http://www.w3.org/2000/svg"
      data-name="Layer 1"
      viewBox="0 0 32 32"
    >
      <path
        d="M.49 20.06c-.93-2.92 1-6.51 3-9.27A17.84 17.84 0 0110 4.87a15.07 15.07 0 018.3-1.31c3 .34 6.18 1.42 8.06 3.53s2.42 5.23 3 8.65 1 7.12-.74 8.85-5.81 1.41-9.43 1.57-6.88.79-10.42 0S1.42 23 .49 20.06z"
        className="cls-1"
      ></path>
      <path
        d="M2.49 22.06c-.93-2.92 1-6.51 3-9.27A17.84 17.84 0 0112 6.87a15.07 15.07 0 018.3-1.31c3 .34 6.18 1.42 8.06 3.53s2.42 5.23 3 8.65 1 7.12-.74 8.85-5.81 1.41-9.43 1.57-6.88.79-10.42 0-7.35-3.16-8.28-6.1z"
        className="cls-2"
      ></path>
      <text className="cls-3" transform="translate(9.55 25.33)">
        B
      </text>
    </svg>